<svg id="Capa_1" enable-background="new 0 0 478.1 478.1" height="512" viewBox="0 0 478.1 478.1" width="512" xmlns="http://www.w3.org/2000/svg"><g><path d="m235.021 242.583c.016 33.251-15.642 64.565-42.254 84.501-18.231 13.686-40.414 21.081-63.21 21.07-58.256-.01-105.473-47.244-105.463-105.499 0-.024 0-.048 0-.072.001-118.506 105.464-242.583 105.464-242.583 30.728 39.853 56.728 83.137 77.478 128.984 8.651 19.359 15.627 39.425 20.849 59.976 4.539 17.52 6.936 35.526 7.136 53.623z" fill="#ef5261"/><path d="m207.036 128.984c-31.327 60.09-59.086 133.891-59.086 207.245 0 3.455.114 6.91.335 10.257 16.157-2.843 31.405-9.491 44.483-19.396 1.674-47.047 16.139-94.872 35.117-138.123-5.222-20.554-12.197-40.622-20.849-59.983z" fill="#da364c"/><path d="m454.006 336.217c0-149.08-141.799-326.259-141.799-326.259s-141.967 166.904-141.967 326.259c0 78.36 63.523 141.883 141.883 141.883s141.883-63.523 141.883-141.883" fill="#ef5261"/></g></svg>