<svg id="Capa_1" enable-background="new 0 0 490.138 490.138" height="512" viewBox="0 0 490.138 490.138" width="512" xmlns="http://www.w3.org/2000/svg"><g><path d="m9.803 40.436h470.533c5.414 0 9.803 4.389 9.803 9.803v330.844c0 5.414-4.389 9.803-9.803 9.803h-470.533c-5.414 0-9.803-4.389-9.803-9.803v-330.844c0-5.414 4.389-9.803 9.803-9.803z" fill="#575b6d"/><path d="m19.606 60.042h450.927v254.872h-450.927z" fill="#69b0ee"/><path d="m133.611 432.242h222.923c2.515 0 4.555 2.039 4.555 4.555v8.35c0 2.515-2.039 4.555-4.555 4.555h-222.923c-2.516 0-4.555-2.039-4.555-4.555v-8.35c0-2.515 2.039-4.555 4.555-4.555z" fill="#575b6d"/><path d="m296.313 376.576h27.4v64.405h-27.4z" fill="#575b6d"/><path d="m166.426 376.576h27.4v64.405h-27.4z" fill="#575b6d"/><path d="m257.55 352.924c0 6.893-5.588 12.481-12.481 12.481s-12.481-5.588-12.481-12.481 5.588-12.481 12.481-12.481c6.893 0 12.481 5.588 12.481 12.481z" fill="#828a9e"/><path d="m99.462 173.754c0 14.283-11.578 25.861-25.861 25.861s-25.861-11.578-25.861-25.861c0-29.044 25.876-59.468 25.876-59.468s25.846 32.277 25.846 59.468" fill="#ef5261"/><path d="m158.996 135.517c0 14.283-11.578 25.861-25.861 25.861s-25.861-11.578-25.861-25.861c0-29.044 25.876-59.468 25.876-59.468s25.846 32.278 25.846 59.468" fill="#ef5261"/><g fill="#eeefee"><path d="m201.543 99.253h242.619v11.668h-242.619z"/><path d="m201.543 151.829h242.619v11.668h-242.619z"/><path d="m128.022 204.406h316.139v11.668h-316.139z"/><path d="m49.6 256.982h394.561v11.668h-394.561z"/></g></g></svg>