<svg id="Capa_1" enable-background="new 0 0 490.138 490.138" height="512" viewBox="0 0 490.138 490.138" width="512" xmlns="http://www.w3.org/2000/svg"><g><path d="m335.518 133.126h-180.897v-53.251c.023-20.484 16.623-37.084 37.107-37.107h106.683c20.484.023 37.084 16.623 37.107 37.107zm-156.163-24.74h131.429v-28.511c-.007-6.827-5.54-12.36-12.367-12.367h-106.689c-6.827.007-12.36 5.54-12.367 12.367z" fill="#62667c"/><path d="m18.554 104.119h453.031c10.247 0 18.554 8.307 18.554 18.554v306.145c0 10.247-8.307 18.554-18.554 18.554h-453.031c-10.247-.001-18.554-8.308-18.554-18.555v-306.145c0-10.247 8.307-18.553 18.554-18.553z" fill="#dbd8dd"/><path d="m18.554 122.672h453.031v306.145h-453.031z" fill="#eeefee"/><path d="m368.13 97.783h65.936c.426 0 .771.345.771.771v31.979c0 .426-.345.771-.771.771h-65.936c-.426 0-.771-.345-.771-.771v-31.979c0-.426.345-.771.771-.771z" fill="#62667c"/><path d="m56.079 97.783h65.936c.426 0 .771.345.771.771v31.979c0 .426-.345.771-.771.771h-65.936c-.426 0-.771-.345-.771-.771v-31.979c0-.426.345-.771.771-.771z" fill="#62667c"/><path d="m354.902 275.745c-.02 60.659-49.21 109.817-109.869 109.797s-109.817-49.21-109.797-109.869c.02-60.631 49.166-109.777 109.797-109.797 60.669-.01 109.859 49.164 109.869 109.833z" fill="#ef5261"/><path d="m305.757 255.428v40.634h-40.371v40.37h-40.634v-40.37h-40.37v-40.634h40.37v-40.371h40.634v40.371z" fill="#eeefee"/></g></svg>