<svg id="Capa_1" enable-background="new 0 0 506.098 506.098" height="512" viewBox="0 0 506.098 506.098" width="512" xmlns="http://www.w3.org/2000/svg"><g><path d="m297.933 5.977v19.964h-89.767v-19.964c0-3.301 2.676-5.977 5.977-5.977h77.812c3.301 0 5.978 2.676 5.978 5.977z" fill="#62667c"/><path d="m86.91 33.891h332.278c9.904 0 17.932 8.028 17.932 17.932v436.343c0 9.904-8.028 17.932-17.932 17.932h-332.278c-9.904 0-17.932-8.028-17.932-17.932v-436.343c0-9.903 8.028-17.932 17.932-17.932z" fill="#f6b863"/><path d="m98.865 63.778h308.369v412.434h-308.369z" fill="#eeefee"/><path d="m293.88 101.435h-81.662c-6.041.017-11.391-3.897-13.204-9.659l-6.934-21.901c-1.357-4.262-.598-2.797 2.026-6.402 2.597-3.578 6.756-5.689 11.178-5.672h95.547c4.421-.017 8.581 2.094 11.178 5.672 2.636 3.586 3.377 2.134 2.026 6.396l-6.952 21.907c-1.812 5.762-7.162 9.676-13.203 9.659zm-88.614-37.657c-1.05.009-1.893.868-1.884 1.918.002.191.032.381.091.563l6.952 21.901c.245.786.97 1.323 1.793 1.327h81.662c.823-.004 1.548-.541 1.793-1.327l6.987-21.907c.317-1.001-.237-2.069-1.238-2.386-.18-.057-.367-.087-.555-.089z" fill="#575b6d"/><path d="m176.462 21.937h153.174c2.548 0 4.615 2.066 4.615 4.614v38.589c0 2.549-2.066 4.614-4.615 4.614h-153.174c-2.549 0-4.614-2.066-4.614-4.614v-38.589c-.001-2.548 2.065-4.614 4.614-4.614z" fill="#828a9e"/><g fill="#dbd8dd"><path d="m131.262 283.324h52.122v12.074h-52.122z"/><path d="m216.229 283.324h158.608v12.074h-158.608z"/><path d="m131.262 331.483h52.122v12.074h-52.122z"/><path d="m216.229 331.483h158.608v12.074h-158.608z"/><path d="m131.262 379.642h52.122v12.074h-52.122z"/><path d="m216.229 379.642h158.608v12.074h-158.608z"/><path d="m131.262 427.801h52.122v12.074h-52.122z"/><path d="m216.229 427.801h158.608v12.074h-158.608z"/></g><path d="m289.51 210.742c0-38.326-36.462-83.873-36.462-83.873s-36.462 42.905-36.462 83.873c-.014 20.137 16.299 36.473 36.436 36.487s36.473-16.299 36.487-36.436c.001-.018.001-.035.001-.051" fill="#ef5261"/><path d="m248.142 189.977h9.815v38.243h-9.815z" fill="#eeefee"/><path d="m233.928 204.197h38.243v9.815h-38.243z" fill="#eeefee"/></g></svg>