<svg id="Capa_1" enable-background="new 0 0 490.139 490.139" height="512" viewBox="0 0 490.139 490.139" width="512" xmlns="http://www.w3.org/2000/svg"><g><path d="m245.069 0c-33.154 0-60.03 26.876-60.03 60.03s26.876 60.03 60.03 60.03 60.03-26.876 60.03-60.03c0-.004 0-.008 0-.012 0-33.147-26.871-60.018-60.018-60.018-.004 0-.008 0-.012 0zm0 103.18c-23.831-.007-43.145-19.331-43.138-43.162s19.331-43.145 43.162-43.138c23.822.007 43.132 19.316 43.138 43.138-.023 23.828-19.334 43.139-43.162 43.162z" fill="#eeefee"/><path d="m408.734 98.087v286.994c.005 5.709-2.876 11.034-7.657 14.154l-90.096 58.578h-12.714v17.334c-.003 8.259-6.684 14.961-14.943 14.991h-.729c-8.283 0-14.997-6.714-14.997-14.997v-17.334h-9.378v32.331h-29.57v-32.343h-9.845v17.334c.007 8.28-6.699 14.999-14.979 15.009-8.283 0-14.997-6.714-14.997-14.997v-17.334h-12.714l-87.233-58.524c-4.672-3.135-7.476-8.391-7.478-14.017v-287.179c0-18.648 15.117-33.766 33.766-33.766h259.797c18.649.001 33.767 15.118 33.767 33.766z" fill="#eeefee"/><path d="m181.256 440.91-82.971-55.667v-287.156c.01-9.322 7.564-16.876 16.886-16.886h259.797c9.322.01 16.876 7.564 16.886 16.886v286.994l-85.9 55.828z" fill="#ef5261"/><path d="m127.352 162.81h235.434v32.361h-235.434z" fill="#575b6d"/><path d="m127.352 195.165h235.434v138.357h-235.434z" fill="#eeefee"/><g fill="#ef5261"><path d="m278.823 437.156h8.219v44.543h-8.219z"/><path d="m239.313 437.156h8.219v52.983h-8.219z"/><path d="m198.865 437.156h8.219v44.543h-8.219z"/></g><path d="m145.165 262.218h108.811v6.587h-108.811z" fill="#dbd8dd"/><path d="m145.165 286.139h200.736v6.587h-200.736z" fill="#dbd8dd"/><path d="m145.165 310.055h200.736v6.587h-200.736z" fill="#dbd8dd"/><path d="m298.267 250.293-6.115 18.53h-7.866l19.994-58.858h9.175l20.078 58.841h-8.129l-6.288-18.53zm19.301-5.935-5.762-16.946c-1.315-3.837-2.182-7.334-3.06-10.759h-.179c-.873 3.497-1.835 7.077-2.989 10.658l-5.768 17.029z" fill="#414451"/></g></svg>