<svg id="Capa_1" enable-background="new 0 0 484.161 484.161" height="512" viewBox="0 0 484.161 484.161" width="512" xmlns="http://www.w3.org/2000/svg"><g><path d="m6.82 296.432h470.521c3.767 0 6.82 3.053 6.82 6.82v26.796c0 3.767-3.053 6.82-6.82 6.82h-470.521c-3.767 0-6.82-3.053-6.82-6.82v-26.796c0-3.766 3.053-6.82 6.82-6.82z" fill="#ef5261"/><ellipse cx="86.091" cy="342.559" fill="#414451" rx="46.139" ry="46.139" transform="matrix(.993 -.119 .119 .993 -40.185 12.691)"/><circle cx="86.091" cy="342.559" fill="#eeefee" r="25.678"/><circle cx="86.091" cy="342.559" fill="#bbbbcd" r="10.55"/><circle cx="398.716" cy="342.559" fill="#414451" r="46.139"/><circle cx="398.716" cy="342.559" fill="#eeefee" r="25.678"/><circle cx="398.716" cy="342.559" fill="#bbbbcd" r="10.55"/><path d="m467.658 231.321v65.153h-452.858v-186.211c0-3.767 3.053-6.82 6.82-6.82h269.355c3.767 0 6.82 3.053 6.82 6.82v23.252h78.829c5.854.018 11.055 3.741 12.959 9.277l21.411 63.425c.938 2.778 3.547 4.646 6.479 4.638h29.731c11.299.003 20.457 9.167 20.454 20.466z" fill="#eeefee"/><path d="m14.776 266.534h12.72c1.981 0 3.586 1.606 3.586 3.586v16.426c0 1.981-1.606 3.586-3.586 3.586h-12.72z" fill="#ef5261"/><path d="m467.658 239.283v39.008h-12.188c-3.767 0-6.82-3.053-6.82-6.82v-25.368c0-3.767 3.053-6.82 6.82-6.82z" fill="#f2b15a"/><path d="m394.024 208.727h-81.053v-60.908h64.077l2.869 10.4z" fill="#69b0ee"/><path d="m359.863 126.36v7.173h-37.502v-7.173c.003-3.762 3.052-6.811 6.814-6.814h23.867c3.765 0 6.818 3.05 6.821 6.814z" fill="#dbd8dd"/><path d="m353.145 107.502v12.044h-24.071v-12.044c0-6.649 5.39-12.038 12.038-12.038 6.647.003 12.033 5.391 12.033 12.038z" fill="#ef5261"/><path d="m312.828 223.043h7.029v18.613h-7.029z" fill="#bbbbcd"/><path d="m297.795 133.521h5.66v162.911h-5.66z" fill="#dbd8dd"/><path d="m14.8 252.308h433.85v7.98h-433.85z" fill="#ef5261"/><path d="m162.086 178.763c.003 7.473-3.516 14.51-9.498 18.99-4.098 3.076-9.084 4.737-14.208 4.734-13.092-.003-23.703-10.619-23.7-23.712 0-.006 0-.012 0-.018 0-26.635 23.7-54.519 23.7-54.519 6.906 8.957 12.749 18.686 17.412 28.99 1.945 4.351 3.512 8.86 4.686 13.479 1.023 3.939 1.562 7.987 1.608 12.056z" fill="#ef5261"/><path d="m155.798 153.228c-8.015 14.27-12.565 30.224-13.282 46.575 0 .777 0 1.554.078 2.307 3.63-.639 7.056-2.132 9.994-4.357.681-10.749 3.357-21.276 7.89-31.046-1.171-4.619-2.737-9.128-4.68-13.479z" fill="#da364c"/><path d="m211.303 199.803c0-33.503-31.871-73.324-31.871-73.324s-31.907 37.508-31.907 73.324c-.01 17.612 14.258 31.897 31.87 31.908 17.612.01 31.897-14.258 31.908-31.87 0-.013 0-.025 0-.038z" fill="#ef5261"/><g fill="#fff" opacity=".5"><path d="m354.035 147.819-31.978 60.908h-5.738l31.978-60.908z"/><path d="m379.917 158.219-26.479 50.508h-17.693l31.978-60.908h9.325z"/></g></g></svg>