<svg id="Capa_1" enable-background="new 0 0 484.16 484.16" height="512" viewBox="0 0 484.16 484.16" width="512" xmlns="http://www.w3.org/2000/svg"><g><path d="m324.064 46.485-171.806 168.547 62.87 62.015 170.568-171.59z" fill="#575b6d"/><path d="m346.084 44.416 41.488-43.539c1.085-1.127 2.873-1.175 4.017-.108l39.504 36.886c1.157 1.078 1.22 2.89.142 4.047-.011.012-.023.024-.034.036l-43.276 45.057z" fill="#575b6d"/><path d="m189.551 402.457h92.445v63.539h-92.445z" fill="#dbd8dd"/><path d="m129.467 456.444h212.607c7.655 0 13.861 6.205 13.861 13.858 0 7.654-6.206 13.858-13.861 13.858h-212.607c-7.655 0-13.861-6.205-13.861-13.858-.001-7.654 6.205-13.858 13.861-13.858z" fill="#575b6d"/><path d="m377.764 202.893c-2.566-6.13-5.587-12.061-9.038-17.741-8.924-15.09-20.376-28.534-33.855-39.743-5.07-4.282-10.427-8.215-16.031-11.769-9.754 6.654-16.543 16.836-18.936 28.398v.084c6.262 3.904 12.143 8.386 17.567 13.389 7.156 6.557 13.459 13.987 18.763 22.116 4.111 6.097 7.624 12.577 10.49 19.348 6.385 14.902 9.663 30.949 9.635 47.161-.195 66.631-54.369 120.487-120.999 120.291-50.778-.149-96.028-32.077-113.191-79.867h-35.727c3.265 12.275 8.086 24.082 14.346 35.135 41.755 74.547 136.036 101.131 210.583 59.376 48.84-27.356 79.093-78.961 79.107-134.941.03-21.071-4.299-41.92-12.714-61.237z" fill="#eeefee"/><path d="m64.35 304.555h109.851c6.734 0 12.194 5.459 12.194 12.194v10.747c0 6.734-5.459 12.194-12.194 12.194h-109.851c-6.734 0-12.194-5.459-12.194-12.194v-10.747c0-6.735 5.46-12.194 12.194-12.194z" fill="#575b6d"/><path d="m344.763 125.522c-21.678.083-40.356 15.291-44.83 36.503v.084c-5.087 24.73 10.836 48.901 35.566 53.988 3.048.627 6.152.941 9.264.938.655.015 1.31-.013 1.961-.084 25.254-.541 45.287-21.453 44.746-46.707s-21.453-45.287-46.707-44.746zm0 73.432c-2.897-.009-5.774-.469-8.53-1.363-9.95-3.206-17.221-11.777-18.763-22.116-.314-1.398-.456-2.829-.424-4.262.031-11.469 7.114-21.737 17.824-25.84 3.152-1.235 6.507-1.872 9.892-1.877 15.295.03 27.687 12.421 27.717 27.717.014 4.887-1.283 9.688-3.754 13.903-4.932 8.575-14.071 13.859-23.963 13.855v-.017z" fill="#828a9e"/><circle cx="344.763" cy="171.255" fill="#bbbbcd" r="27.717"/><g fill="#eeefee"><path d="m221.159 286.742-4.698 4.184c-4.314 3.812-10.83 3.68-14.985-.305l-62.206-59.731c-4.41-4.23-4.555-11.234-.325-15.643.069-.072.14-.144.211-.214l4.537-4.477c4.269-4.217 11.121-4.262 15.445-.102l62.361 60.03c4.403 4.237 4.537 11.241.3 15.644-.205.213-.419.418-.64.614z"/><path d="m401.488 106.664-4.698 4.184c-4.314 3.812-10.83 3.68-14.985-.305l-62.224-59.737c-4.41-4.23-4.555-11.234-.325-15.643.069-.072.14-.144.211-.214l4.537-4.477c4.269-4.217 11.121-4.262 15.445-.102l62.385 60.036c4.401 4.239 4.533 11.243.294 15.644-.205.213-.419.418-.64.614z"/></g></g></svg>