<svg id="Capa_1" enable-background="new 0 0 490.118 490.118" height="512" viewBox="0 0 490.118 490.118" width="512" xmlns="http://www.w3.org/2000/svg"><g><g fill="#eeefee"><path d="m482.39 147.968c-4.126 2.797-8.429 5.325-12.881 7.567l-134.896-134.919c2.214-4.472 4.731-8.787 7.531-12.917z"/><path d="m443.46 165.589c-5.51 1.56-11.109 2.79-16.766 3.682l-105.846-105.852c.913-5.653 2.142-11.251 3.682-16.766z"/><path d="m164.463 440.36-114.71-114.71c5.623-1.534 11.178-2.795 16.665-3.784l101.829 101.829c-.972 5.487-2.233 11.042-3.784 16.665z"/><path d="m149.532 482.069-141.488-141.489c4.872-2.146 9.677-4.184 14.447-5.977l133.043 133.043c-1.842 4.746-3.85 9.552-6.002 14.423z"/><path d="m359.73 254.155-123.73-123.73c5.38-1.739 10.669-3.24 16.019-4.429l112.14 112.146c-1.202 5.409-2.681 10.754-4.429 16.013z"/><path d="m341.535 293.348-144.77-144.764c4.226-2.66 8.589-5.111 13.054-7.394l139.14 139.116c-2.254 4.488-4.77 8.816-7.424 13.042z"/><path d="m315.803 325.069-150.73-150.724c3.305-3.443 6.814-6.814 10.496-9.952l150.186 150.186c-3.168 3.64-6.509 7.185-9.952 10.49z"/><path d="m295.492 341.77c-4.089 2.808-8.32 5.401-12.678 7.771l-142.26-142.26c2.391-4.292 4.973-8.518 7.806-12.642z"/><path d="m256.884 360.551c-.646.239-1.297.406-1.978.598-4.756 1.376-9.578 2.513-14.447 3.407l-114.878-114.866c.956-5.248 2.116-10.09 3.377-14.483.203-.681.377-1.327.598-1.978z"/></g><path d="m133.214 489.057c-1.333-.611-2.547-1.453-3.586-2.487-3.546-3.534-4.536-8.893-2.487-13.461 1.399-3.168 2.762-6.306 4.023-9.408 2.08-5.009 3.921-9.982 5.589-14.86 3.229-9.331 5.768-18.887 7.597-28.589 1.129-5.981 1.914-12.022 2.349-18.093 1.504-17.426-1.075-34.964-7.531-51.219l-.717-1.739c-3.762-8.666-6.882-17.596-9.337-26.719-6.635-23.689-7.847-48.57-3.545-72.792.956-5.248 2.116-10.09 3.377-14.483.203-.681.377-1.327.598-1.978 2.762-9.003 6.452-17.695 11.01-25.936 2.391-4.292 4.973-8.518 7.806-12.642 5.007-7.216 10.592-14.012 16.701-20.323 3.305-3.443 6.814-6.814 10.496-9.952 6.636-5.824 13.724-11.112 21.196-15.816 4.226-2.66 8.589-5.111 13.054-7.394 4.814-2.473 9.749-4.701 14.788-6.677 3.819-1.5 7.567-2.863 11.357-4.088 5.38-1.739 10.669-3.24 16.019-4.429 23.72-5.702 48.484-5.433 72.074.783 6.763 1.818 13.372 4.164 19.767 7.017 2.989 1.327 5.929 2.522 8.858 3.586 16.497 6.44 34.06 9.715 51.769 9.653 6.324-.06 12.635-.584 18.882-1.566 9.648-1.568 19.078-4.269 28.093-8.045 4.689-1.96 9.233-4.249 13.598-6.85 1.984-1.157 3.896-2.433 5.726-3.819 5.289-4.034 12.847-3.016 16.881 2.274 3.979 5.218 3.049 12.662-2.093 16.74-.305.239-1.327 1.058-3.102 2.212-4.126 2.797-8.429 5.325-12.881 7.567-8.356 4.157-17.083 7.523-26.067 10.054-5.51 1.56-11.109 2.79-16.766 3.682-21.117 3.307-42.69 2.204-63.359-3.24-9.957-2.566-19.68-5.965-29.068-10.161-.066 0-.137-.066-.203-.066-19.235-8.531-40.432-11.653-61.309-9.032-5.844.638-11.636 1.685-17.334 3.132-7.484 1.799-14.829 4.134-21.979 6.987-1.909.749-3.784 1.532-5.625 2.349-4.623 2.065-9.134 4.371-13.515 6.91-7.706 4.399-14.976 9.523-21.71 15.302-3.705 3.093-7.222 6.404-10.532 9.916-6.106 6.344-11.574 13.273-16.324 20.687-2.706 4.225-5.142 8.617-7.292 13.15-2.563 5.402-4.693 10.998-6.372 16.736-.956 3.407-1.877 7.125-2.624 11.213-1.18 6.026-1.909 12.132-2.182 18.267-.819 20.846 2.722 41.634 10.395 61.034.885 2.391 1.877 4.782 2.929 7.227 2.981 6.882 5.331 14.02 7.023 21.327l.036.036c4.477 20.631 4.68 41.96.598 62.672-.988 5.487-2.249 11.042-3.784 16.665-2.439 9.255-5.421 18.358-8.93 27.262-1.841 4.782-3.849 9.564-5.977 14.447-.137.275-.275.598-.406.885-2.71 6.082-9.837 8.816-15.919 6.106-.01-.004-.021-.009-.033-.014z" fill="#69b0ee"/><path d="m315.803 325.069c-6.311 6.108-13.107 11.693-20.323 16.701-4.089 2.808-8.32 5.401-12.678 7.771-8.241 4.558-16.932 8.248-25.935 11.01-.646.239-1.297.406-1.978.598-4.756 1.376-9.578 2.513-14.447 3.407-24.218 4.279-49.088 3.064-72.774-3.557l-.036-.036c-9.126-2.444-18.057-5.564-26.719-9.337l-1.739-.717c-16.26-6.443-33.793-9.021-51.219-7.531-6.071.436-12.112 1.22-18.093 2.349-9.706 1.841-19.263 4.392-28.595 7.633-4.872 1.668-9.851 3.509-14.86 5.589-3.102 1.261-6.234 2.624-9.408 4.023-6.06 2.707-13.169.013-15.912-6.031-2.719-6.079-.006-13.213 6.067-15.947.275-.137.598-.275.885-.406 4.872-2.146 9.677-4.184 14.447-5.977 8.904-3.509 18.008-6.491 27.262-8.93 5.623-1.534 11.178-2.795 16.665-3.784 20.722-4.083 42.061-3.88 62.702.598 7.308 1.69 14.449 4.038 21.333 7.017 2.391 1.058 4.842 2.044 7.227 2.929 19.403 7.671 40.192 11.209 61.04 10.389 6.135-.273 12.24-1.002 18.267-2.182 3.781-.681 7.523-1.557 11.213-2.624 5.745-1.658 11.343-3.789 16.736-6.372 4.544-2.138 8.948-4.562 13.186-7.256 11.485-7.377 21.79-16.445 30.568-26.898 5.779-6.734 10.902-14.003 15.302-21.71 2.559-4.382 4.858-8.911 6.886-13.562.885-1.841 1.638-3.682 2.391-5.589 2.863-7.138 5.208-14.473 7.017-21.949 1.428-5.702 2.474-11.493 3.132-17.334 2.625-20.89-.508-42.1-9.062-61.339 0-.072-.072-.137-.066-.203-4.196-9.387-7.595-19.111-10.161-29.068-5.444-20.669-6.547-42.242-3.24-63.359.913-5.653 2.142-11.251 3.682-16.766 2.519-8.983 5.898-17.702 10.09-26.037 2.214-4.472 4.731-8.787 7.531-12.917 1.16-1.793 1.978-2.797 2.218-3.102 4.133-5.212 11.709-6.086 16.921-1.953 5.142 4.078 6.073 11.522 2.093 16.74-1.388 1.835-2.652 3.76-3.784 5.762-2.622 4.354-4.912 8.9-6.85 13.598-3.795 9.009-6.495 18.441-8.039 28.093-.996 6.234-1.531 12.533-1.602 18.846-.097 17.698 3.14 35.257 9.54 51.757 1.088 2.929 2.283 5.894 3.646 8.894 2.863 6.374 5.2 12.971 6.987 19.725 6.246 23.597 6.528 48.377.819 72.11-1.202 5.412-2.68 10.758-4.429 16.019-1.225 3.819-2.588 7.567-4.088 11.357-1.978 5.045-4.262 9.982-6.677 14.788-2.283 4.465-4.782 8.793-7.43 13.019-4.692 7.482-9.968 14.582-15.78 21.231-3.145 3.67-6.486 7.215-9.929 10.52z" fill="#ef5261"/></g></svg>