<svg id="Capa_1" enable-background="new 0 0 490.139 490.139" height="512" viewBox="0 0 490.139 490.139" width="512" xmlns="http://www.w3.org/2000/svg"><g><path d="m107.998 0h274.143c12.445 0 22.534 10.089 22.534 22.534v445.07c0 12.445-10.089 22.534-22.534 22.534h-274.143c-12.445 0-22.534-10.089-22.534-22.534v-445.07c-.001-12.445 10.088-22.534 22.534-22.534z" fill="#62667c"/><path d="m107.998 47.866h274.143v360.563h-274.143z" fill="#69b0ee"/><path d="m265.141 449.26c-.01 11.085-9.004 20.064-20.09 20.054-11.085-.01-20.064-9.004-20.054-20.09.01-11.078 8.993-20.054 20.072-20.054 11.09.007 20.075 9 20.072 20.09z" fill="#9a9eaf"/><path d="m221.094 18.781h47.95c2.846 0 5.152 2.307 5.152 5.152v.006c0 2.846-2.307 5.152-5.152 5.152h-47.95c-2.846 0-5.152-2.307-5.152-5.152v-.006c0-2.846 2.307-5.152 5.152-5.152z" fill="#9a9eaf"/><path d="m244.011 142.828c.004 8.729-4.107 16.949-11.094 22.182-4.786 3.592-10.609 5.532-16.593 5.529-15.294-.003-27.69-12.404-27.687-27.699 0-.006 0-.012 0-.018 0-31.082 27.687-63.682 27.687-63.682 8.061 10.463 14.881 21.826 20.323 33.861 2.272 5.082 4.104 10.349 5.475 15.744 1.198 4.6 1.832 9.329 1.889 14.083z" fill="#ef5261"/><path d="m236.665 113.001c-9.37 16.663-14.694 35.295-15.541 54.393 0 .909 0 1.793.09 2.69 4.242-.746 8.246-2.492 11.68-5.093.796-12.555 3.922-24.853 9.217-36.264-1.363-5.388-3.185-10.649-5.446-15.726z" fill="#da364c"/><path d="m301.501 167.406c0-39.139-37.227-85.649-37.227-85.649s-37.268 43.814-37.268 85.649c0 20.571 16.676 37.248 37.248 37.248s37.247-16.676 37.247-37.248z" fill="#ef5261"/><g fill="#eeefee"><path d="m140.843 242.762h106.336v9.127h-106.336z"/><path d="m140.843 282.194h212.672v9.127h-212.672z"/><path d="m140.843 321.633h212.672v9.127h-212.672z"/><path d="m140.843 361.071h212.672v9.127h-212.672z"/></g></g></svg>