<svg id="Capa_1" enable-background="new 0 0 490.067 490.067" height="512" viewBox="0 0 490.067 490.067" width="512" xmlns="http://www.w3.org/2000/svg"><g><path d="m393.545 341.531c0-156.055-148.44-341.531-148.44-341.531s-148.607 174.71-148.607 341.531c0 82.034 66.502 148.536 148.536 148.536s148.536-66.502 148.536-148.536" fill="#ef5261"/><g fill="#eeefee"><path d="m196.067 354.095-15.732 47.627h-20.191l51.405-151.423h23.61l51.704 151.423h-20.921l-16.181-47.627zm49.648-15.278-14.818-43.592c-3.383-9.88-5.619-18.87-7.866-27.633h-.46c-2.247 8.966-4.722 18.201-7.627 27.412l-14.836 43.814h45.607z"/><path d="m267.956 271.668h61.967v19.229h-61.967z"/></g></g></svg>