<svg id="Capa_1" enable-background="new 0 0 490.161 490.161" height="512" viewBox="0 0 490.161 490.161" width="512" xmlns="http://www.w3.org/2000/svg"><g><path d="m196.545 302.839-52.08 3.359s-92.403-115.553-22.212-238.034c51.74-90.257 145.248-70.58 190.861-53.993 0 0 50.873-4.782 59.839 73.598s-16.802 175.308-73.365 226.265z" fill="#414451"/><path d="m315.613 367.997-30.956 58.96-59.773 7.125-51.884-21.685-6.718-51.518 13.084-37.657 3.718-11.112c2.813-3.08 4.721-6.878 5.511-10.974.662-2.531 1.141-5.106 1.435-7.705.269-2.104.49-4.256.598-6.497.6-12.443.12-24.914-1.435-37.274 0 0 115.96-53.401 110.706 0s5.105 59.229 5.105 59.229z" fill="#f4bb87"/><path d="m172.576 366.132s58.858 29.151 147.992 0v124.029h-127.251z" fill="#69b0ee"/><path d="m284.28 81.26s-3.359 14.184-25.762 18.297c-10.414 2.164-20.628 5.201-30.532 9.08-25.734 9.383-46.636 28.685-58.034 53.592-8.735 20.221-12.054 42.369-9.629 64.262 0 0 38.464 64.961 84.758 64.585 46.294-.377 85.475-62.349 92.218-83.252 0 0 12.319.932 18.482-17.549 3.024-8.324 4.512-17.128 4.393-25.983-.061-2.276-.889-4.464-2.349-6.21-4.619-4.828-11.654-6.469-17.932-4.184 0-.002-41.8-16.637-55.613-72.638z" fill="#fed19a"/><path d="m305.057 308.864-41.841 181.297h161.256c10.669 0 19.319-8.649 19.319-19.319v-53.096c-.001-47.036-36.721-85.891-83.682-88.548l-21.393-1.195c-12.074-.684-23.302-6.415-30.939-15.792z" fill="#eeefee"/><path d="m185.242 309.473 41.734 180.688h-161.286c-10.669 0-19.319-8.649-19.319-19.319v-53.096c.001-47.036 36.721-85.891 83.682-88.548l21.393-1.195c12.074-.684 23.302-6.415 30.938-15.792z" fill="#eeefee"/><path d="m359.247 347.435c-24.106 0-43.037 31.99-43.037 72.845-.378 17.655 3.722 35.118 11.919 50.759 2.161 3.861 4.769 7.454 7.771 10.705 3.325-.093 6.256-2.207 7.394-5.332-3.089-3.229-5.705-6.88-7.771-10.843-7.096-14.025-10.648-29.575-10.347-45.29 0-34.632 15.589-63.885 34.071-63.885s34.071 29.253 34.071 63.885c.27 15.733-3.298 31.294-10.395 45.338-1.942 3.72-4.384 7.156-7.256 10.215.865 3.222 3.662 5.552 6.987 5.822 3.139-3.455 5.861-7.267 8.111-11.357 7.914-15.464 11.872-32.65 11.518-50.018.001-40.853-18.918-72.844-43.036-72.844z" fill="#bbbbcd"/><path d="m391.477 473.64c-.013 4.474-3.637 8.098-8.111 8.111-.243.015-.486-.016-.717-.09-3.325-.27-6.122-2.6-6.987-5.822-.256-.702-.378-1.446-.359-2.194-.021-4.282 3.338-7.82 7.615-8.022.147-.036.298-.05.448-.042 4.46-.02 8.091 3.58 8.111 8.039v.024z" fill="#575b6d"/><path d="m343.849 473.64c.008.953-.175 1.898-.538 2.779-1.138 3.125-4.069 5.239-7.394 5.332h-.179c-4.464-.02-8.07-3.647-8.063-8.111-.013-.887.139-1.769.448-2.6 1.069-3.214 4.049-5.403 7.436-5.463h.179c4.464-.007 8.092 3.599 8.111 8.063z" fill="#575b6d"/><path d="m359.247 356.413c-2.001-.004-3.757-1.333-4.304-3.258-3.306-9.906-9.563-18.564-17.932-24.812-2.027-1.418-2.521-4.21-1.103-6.237s4.21-2.521 6.237-1.103c10.079 7.407 17.569 17.802 21.405 29.707.67 2.387-.722 4.865-3.108 5.535-.393.11-.799.167-1.207.167h.012z" fill="#bbbbcd"/><path d="m190.687 286.933c-.137 2.241-.359 4.393-.598 6.497-.294 2.599-.773 5.174-1.435 7.705-7.77 6.228-56.318 48.518-53.67 132.792.084 2.485-1.861 4.569-4.346 4.656h-.137c-2.421-.005-4.403-1.926-4.483-4.345-2.282-56.442 21.575-110.785 64.669-147.305z" fill="#bbbbcd"/><circle cx="129.617" cy="451.787" fill="#575b6d" r="22.409"/><circle cx="129.623" cy="451.787" fill="#bbbbcd" r="12.2"/></g></svg>