<svg id="Capa_1" enable-background="new 0 0 490.067 490.067" height="512" viewBox="0 0 490.067 490.067" width="512" xmlns="http://www.w3.org/2000/svg"><g><path d="m393.545 341.531c0-156.055-148.44-341.531-148.44-341.531s-148.607 174.71-148.607 341.531c0 82.034 66.502 148.536 148.536 148.536s148.536-66.502 148.536-148.536" fill="#ef5261"/><g fill="#eeefee"><path d="m292.619 250.299h19.229v61.967h-19.229z"/><path d="m271.25 271.668h61.967v19.229h-61.967z"/><path d="m156.826 253.545c12.157-2.247 24.5-3.334 36.862-3.246 20.173 0 33.144 3.485 42.881 11.357 8.605 6.497 13.461 16.813 12.983 27.585-.53 15.922-11.166 29.729-26.426 34.304v.46c18.646 3.802 32.084 20.14 32.218 39.169.19 11.834-4.604 23.202-13.21 31.327-10.891 9.964-28.518 14.597-54.017 14.597-10.46.077-20.913-.54-31.291-1.847zm20.174 63.957h18.308c21.327 0 33.837-11.124 33.837-26.187 0-18.314-13.909-25.499-34.31-25.499-5.977-.157-11.955.308-17.836 1.387zm0 74.872c5.603.753 11.258 1.063 16.91.926 20.873 0 40.108-7.645 40.108-30.365 0-21.315-18.308-30.132-40.335-30.132h-16.683z"/></g></g></svg>