<svg id="Capa_1" enable-background="new 0 0 490.138 490.138" height="512" viewBox="0 0 490.138 490.138" width="512" xmlns="http://www.w3.org/2000/svg"><g><path d="m86.575 374.693 29.462-29.462 28.691 28.691-29.438 29.486c-6.153 6.153-16.129 6.154-22.283.001 0 0-.001-.001-.001-.001l-6.438-6.438c-6.147-6.154-6.144-16.126.007-22.277z" fill="#eeefee"/><path d="m379.769 51.241h74.447v44.806h-74.447z" fill="#dbd8dd" transform="matrix(.707 -.707 .707 .707 70.06 316.428)"/><path d="m325.936 109.982 40.347-40.347c1.095-1.094 2.868-1.094 3.963 0l50.759 50.759c1.094 1.095 1.094 2.868 0 3.963l-40.347 40.347z" fill="#eeefee"/><path d="m412.289 7.046 2.312-2.312c5.651-5.651 14.814-5.651 20.465 0l50.834 50.834c5.651 5.651 5.651 14.814 0 20.465l-2.312 2.312c-5.651 5.651-14.814 5.651-20.465 0l-50.833-50.833c-5.652-5.652-5.652-14.814-.001-20.466z" fill="#eeefee"/><path d="m281.728 286.133-97.627 97.609c-11.618 11.622-30.458 11.625-42.08.006-.002-.002-.004-.004-.006-.006l-35.152-35.152c-10.491-10.508-11.648-27.136-2.714-38.996.828-1.1 1.735-2.139 2.714-3.108l84.752-84.728s28.404 12.242 39.133 37.472c10.729 25.229 50.98 26.903 50.98 26.903z" fill="#ef5261"/><path d="m376.301 191.56-94.573 94.573s-40.263-1.644-50.98-26.898-39.133-37.478-39.133-37.478l107.442-107.442z" fill="#eeefee"/><g fill="#dbd8dd"><path d="m273.241 78.1 3.8-3.8c6.515-6.515 17.078-6.515 23.593 0l115.699 115.699c6.515 6.515 6.515 17.078 0 23.593l-3.8 3.8c-6.515 6.515-17.078 6.515-23.593 0l-115.699-115.699c-6.515-6.515-6.515-17.078 0-23.593z"/><path d="m300.897 160.681c-2.273 2.275-5.959 2.276-8.233.003-.001-.001-.002-.002-.003-.003l-19.982-19.982 8.255-8.237 19.964 19.958c2.281 2.266 2.293 5.952.027 8.233-.01.01-.019.019-.028.028z"/><path d="m288.704 196.653c-2.273 2.275-5.959 2.276-8.233.003-.001-.001-.002-.002-.003-.003l-31.865-31.865 8.237-8.237 31.865 31.877c2.266 2.273 2.266 5.952-.001 8.225z"/><path d="m252.69 208.888c-2.273 2.275-5.959 2.276-8.233.003-.001-.001-.002-.002-.003-.003l-19.982-20.006 8.237-8.237 19.982 19.982c2.281 2.266 2.293 5.952.027 8.233-.009.01-.019.019-.028.028z"/><path d="m240.473 244.878c-2.273 2.275-5.959 2.276-8.233.003-.001-.001-.002-.002-.003-.003l-31.865-31.865 8.237-8.243 31.865 31.865c2.034 2.225 1.824 5.826-.001 8.243z"/></g><path d="m204.483 257.095c-2.273 2.275-5.959 2.276-8.233.003-.001-.001-.002-.002-.003-.003l-19.982-19.982 8.237-8.237 19.982 19.982c2.275 2.273 2.276 5.959.003 8.233-.001.002-.003.003-.004.004z" fill="#da364c"/><path d="m192.266 293.085c-2.273 2.275-5.959 2.276-8.233.003-.001-.001-.002-.002-.003-.003l-31.871-31.877 8.237-8.237 31.865 31.865c2.279 2.268 2.289 5.954.021 8.233-.006.005-.011.01-.016.016z" fill="#da364c"/><path d="m156.276 305.302c-2.273 2.275-5.959 2.276-8.233.003-.001-.001-.002-.002-.003-.003l-19.982-19.982 8.225-8.243 19.994 19.994c2.271 2.274 2.271 5.958-.001 8.231z" fill="#da364c"/><path d="m144.053 341.303c-2.273 2.275-5.959 2.276-8.233.003-.001-.001-.002-.002-.003-.003l-31.68-31.68c.828-1.1 1.735-2.139 2.714-3.108l5.326-5.326 31.877 31.859c2.279 2.268 2.289 5.954.021 8.233-.008.008-.015.015-.022.022z" fill="#da364c"/><path d="m0 489.642c13.481-17.702 28.139-34.476 43.873-50.209l52.809-52.809 6.342 6.342-52.815 52.804c-15.733 15.733-32.507 30.391-50.209 43.872z" fill="#eeefee"/></g></svg>