<svg id="Capa_1" enable-background="new 0 0 490.14 490.14" height="512" viewBox="0 0 490.14 490.14" width="512" xmlns="http://www.w3.org/2000/svg"><g><path d="m388.909 374.67c-43.736 26.479-104.394 44.286-134.065 52.002-11.336 2.937-23.265 2.672-34.459-.765l-202.32-61.877c-9.816-2.998-15.342-13.386-12.344-23.202.436-1.427 1.042-2.797 1.806-4.079 4.448-7.442 13.449-10.824 21.698-8.153 19.304 5.158 39.403 6.658 59.259 4.423 0 0 46.127-8.165 75.517-4.489 20.73 2.043 41.566 2.818 62.391 2.319 7.99-.118 15.866-1.919 23.114-5.284 5.215-2.406 10.029-5.599 14.274-9.468 66.223-60.586 134.119-7.173 134.119-7.173z" fill="#fed19a"/><path d="m238.992 433.582c-6.79.001-13.542-1.006-20.036-2.989l-202.326-61.871c-12.4-3.782-19.385-16.901-15.603-29.3 3.782-12.4 16.901-19.385 29.3-15.603.129.039.257.08.385.121 18.626 4.935 38.006 6.368 57.155 4.226 1.674-.299 46.976-8.225 76.743-4.489 20.505 2.005 41.113 2.768 61.71 2.283 7.305-.101 14.506-1.747 21.13-4.83 4.759-2.196 9.152-5.111 13.025-8.643 68.512-62.678 139.743-7.956 140.467-7.394 2.126 1.67 2.495 4.748.825 6.874s-4.748 2.495-6.874.825c-2.648-2.074-65.505-50.054-127.789 6.922-11.144 10.117-25.596 15.819-40.646 16.037-21.051.487-42.111-.302-63.066-2.361-28.308-3.539-73.604 4.369-74.059 4.453-20.638 2.404-41.546.85-61.602-4.579-7.157-2.413-14.915 1.434-17.328 8.591s1.434 14.915 8.591 17.328c.168.056.336.11.506.16l202.314 61.871c10.331 3.171 21.338 3.415 31.799.705 31.261-8.123 90.078-25.607 132.756-51.447 2.257-1.488 5.293-.865 6.782 1.392s.865 5.293-1.392 6.782c-.104.069-.211.134-.321.194-43.742 26.485-103.587 44.286-135.368 52.546-5.577 1.455-11.316 2.192-17.078 2.196z" fill="#f4bb87"/><path d="m218.532 388.687c-29.886 0-60.52-3.174-74.639-14.543-5.075-3.769-8.301-9.525-8.864-15.822-.893-7.696 1.834-15.37 7.382-20.777 15.601-15.278 50.777-11.955 52.265-11.787 2.683.357 4.569 2.822 4.212 5.505-.341 2.56-2.609 4.416-5.186 4.244-8.894-.885-34.214-.98-44.441 9.05-3.441 3.393-5.092 8.204-4.459 12.995.374 3.603 2.282 6.87 5.236 8.966 23.311 18.763 110.018 11.698 141.465 7.382 2.681-.366 5.151 1.51 5.517 4.19.366 2.681-1.51 5.151-4.19 5.517-24.641 3.194-49.453 4.89-74.298 5.08z" fill="#f4bb87"/><path d="m433.595 273.845v128.189h-52.839c-2.704 0-4.895-2.192-4.895-4.895v-118.399c0-2.704 2.192-4.895 4.895-4.895z" fill="#dbd8dd"/><path d="m425.304 262.434h59.94c2.704 0 4.895 2.192 4.895 4.895v140.831c0 2.704-2.192 4.895-4.895 4.895h-59.94c-2.704 0-4.895-2.192-4.895-4.895v-140.831c0-2.703 2.192-4.895 4.895-4.895z" fill="#62667c"/><path d="m160.074 166.947c.008 15.128-7.115 29.376-19.223 38.446-8.297 6.218-18.388 9.574-28.757 9.564-26.505-.007-47.986-21.499-47.98-48.004 0-.01 0-.02 0-.03 0-53.915 47.98-110.365 47.98-110.365 13.986 18.132 25.82 37.825 35.266 58.685 3.936 8.808 7.11 17.936 9.486 27.286 2.06 7.979 3.144 16.178 3.228 24.418z" fill="#ef5261"/><path d="m147.342 115.261c-14.25 27.34-26.898 60.915-26.898 94.292 0 1.572.048 3.144.149 4.668 7.351-1.292 14.289-4.317 20.239-8.822 1.381-21.758 6.799-43.069 15.977-62.845-2.369-9.352-5.537-18.483-9.467-27.293z" fill="#da364c"/><path d="m259.703 209.547c0-67.824-64.513-148.434-64.513-148.434s-64.59 75.911-64.59 148.434c-.016 35.653 28.873 64.568 64.526 64.584s64.568-28.873 64.584-64.526c0-.019 0-.039 0-.058" fill="#ef5261"/></g></svg>