<svg id="Capa_1" enable-background="new 0 0 490.756 490.756" height="512" viewBox="0 0 490.756 490.756" width="512" xmlns="http://www.w3.org/2000/svg"><g><path d="m309.099 246.928v179.474c.341 35.199-27.917 64.009-63.116 64.35s-64.009-27.917-64.35-63.116c-.004-.411-.004-.823 0-1.234v-159.181c9.892-8.41 27.735-16.975 55.218-8.261 2.654.819 5.38 1.835 8.207 2.989 34.872 14.501 54.71-2.271 64.041-15.021z" fill="#ef5261"/><path d="m309.099 50.377v196.552c-9.331 12.75-29.163 29.522-64.041 15.039-2.803-1.195-5.559-2.194-8.207-2.989-27.496-8.721-45.326-.155-55.218 8.261v-216.863z" fill="#eeefee"/><path d="m263.63 489.983c-1.195.102-2.552.155-3.825.155-35.187.01-63.72-28.507-63.73-63.694 0-.014 0-.028 0-.042v-376.025h7.651v376.032c-.026 33.718 26.25 61.604 59.91 63.581z" fill="#fff"/><path d="m175.907 0h138.942c2.816 0 5.099 2.283 5.099 5.099v46.551c0 2.816-2.283 5.099-5.099 5.099h-138.942c-2.816 0-5.099-2.283-5.099-5.099v-46.551c0-2.816 2.283-5.099 5.099-5.099z" fill="#69b0ee"/><g fill="#419be9"><path d="m308.154 6.067h5.26v44.615h-5.26z"/><path d="m293.618 6.067h5.26v44.615h-5.26z"/><path d="m279.081 6.067h5.26v44.615h-5.26z"/><path d="m264.55 6.067h5.26v44.615h-5.26z"/><path d="m250.013 6.067h5.26v44.615h-5.26z"/><path d="m235.476 6.067h5.26v44.615h-5.26z"/><path d="m220.946 6.067h5.26v44.615h-5.26z"/><path d="m206.409 6.067h5.26v44.615h-5.26z"/><path d="m191.872 6.067h5.26v44.615h-5.26z"/><path d="m177.341 6.067h5.26v44.615h-5.26z"/></g></g></svg>