<svg id="Capa_1" enable-background="new 0 0 490.139 490.139" height="512" viewBox="0 0 490.139 490.139" width="512" xmlns="http://www.w3.org/2000/svg"><g><path d="m185.583 0h118.978c5.044 0 9.133 4.089 9.133 9.133v89.97c0 5.044-4.089 9.133-9.133 9.133h-118.978c-5.044 0-9.133-4.089-9.133-9.133v-89.97c0-5.044 4.089-9.133 9.133-9.133z" fill="#eeefee"/><path d="m235.326 16.037h19.486v68.058h-19.486z" fill="#ef5261"/><path d="m211.041 40.323h68.058v19.486h-68.058z" fill="#ef5261"/><path d="m20.867 203.527h448.405v286.612h-448.405z" fill="#dbd8dd"/><path d="m87.896 124.943h314.346v365.195h-314.346z" fill="#eeefee"/><path d="m78.44 101.04h333.264c1.377 0 2.493 1.116 2.493 2.493v29.683c0 1.377-1.116 2.493-2.493 2.493h-333.264c-1.377 0-2.493-1.116-2.493-2.493v-29.683c.001-1.377 1.117-2.493 2.493-2.493z" fill="#dbd8dd"/><path d="m151.829 346.833h186.48v143.306h-186.48z" fill="#bbbbcd"/><path d="m161.076 344.52h167.992v145.619h-167.992z" fill="#9a9eaf"/><path d="m143.126 332.965h203.886c1.621 0 2.935 1.314 2.935 2.935v12.624c0 1.621-1.314 2.935-2.935 2.935h-203.886c-1.621 0-2.935-1.314-2.935-2.935v-12.624c.001-1.621 1.315-2.935 2.935-2.935z" fill="#828a9e"/><path d="m243.049 351.453h4.047v138.685h-4.047z" fill="#62667c"/><path d="m121.124 156.145h62.983v62.983h-62.983z" fill="#69b0ee"/><path d="m152.66 156.145-20.645 62.965h-3.389l20.639-62.965z" fill="#eeefee" opacity=".5"/><path d="m174.573 156.145-20.646 62.965h-14.112l20.646-62.965z" fill="#eeefee" opacity=".5"/><path d="m213.575 156.145h62.983v62.983h-62.983z" fill="#69b0ee"/><path d="m245.111 156.145-20.639 62.965h-3.396l20.646-62.965z" fill="#eeefee" opacity=".5"/><path d="m267.03 156.145-20.646 62.965h-14.112l20.639-62.965z" fill="#eeefee" opacity=".5"/><path d="m306.032 156.145h62.983v62.983h-62.983z" fill="#69b0ee"/><path d="m337.568 156.145-20.646 62.965h-3.389l20.646-62.965z" fill="#eeefee" opacity=".5"/><path d="m359.487 156.145-20.646 62.965h-14.118l20.645-62.965z" fill="#eeefee" opacity=".5"/><path d="m121.124 244.555h62.983v62.983h-62.983z" fill="#69b0ee"/><path d="m152.66 244.555-20.645 62.965h-3.389l20.639-62.965z" fill="#eeefee" opacity=".5"/><path d="m174.573 244.555-20.646 62.965h-14.112l20.646-62.965z" fill="#eeefee" opacity=".5"/><path d="m213.575 244.555h62.983v62.983h-62.983z" fill="#69b0ee"/><path d="m245.111 244.555-20.639 62.965h-3.396l20.646-62.965z" fill="#eeefee" opacity=".5"/><path d="m267.03 244.555-20.646 62.965h-14.112l20.639-62.965z" fill="#eeefee" opacity=".5"/><path d="m306.032 244.555h62.983v62.983h-62.983z" fill="#69b0ee"/><g fill="#eeefee"><path d="m337.568 244.555-20.646 62.965h-3.389l20.646-62.965z" opacity=".5"/><path d="m359.487 244.555-20.646 62.965h-14.118l20.645-62.965z" opacity=".5"/></g></g></svg>