<svg id="Capa_1" enable-background="new 0 0 490.139 490.139" height="512" viewBox="0 0 490.139 490.139" width="512" xmlns="http://www.w3.org/2000/svg"><g><path d="m299.155 107.269c0 59.229-38.255 107.269-85.475 107.269s-85.356-48.04-85.356-107.269 38.165-107.269 85.326-107.269 85.505 48.04 85.505 107.269z" fill="#ef5261"/><path d="m213.632 169.887c-23.628 0-49.958-25.702-49.958-62.624s26.33-62.624 49.958-62.624 50.144 25.702 50.144 62.624-26.426 62.624-50.144 62.624z" fill="#da364c"/><path d="m263.733 107.227c0 36.904-26.414 62.648-50.072 62.648-3.79-.014-7.556-.619-11.16-1.793 20.09-6.695 38.763-29.839 38.763-60.861s-18.673-54.095-38.763-60.717c3.592-1.231 7.363-1.859 11.16-1.859 23.659.011 50.072 25.756 50.072 62.582z" fill="#b9354e"/><path d="m452.861 181.56c0 43.425-28.057 78.643-62.69 78.643s-62.576-35.224-62.576-78.643 28.004-78.643 62.576-78.643 62.69 35.218 62.69 78.643z" fill="#ef5261"/><path d="m390.159 227.472c-17.334 0-36.629-18.858-36.629-45.912s19.307-45.912 36.629-45.912 36.76 18.858 36.76 45.912-19.372 45.912-36.76 45.912z" fill="#da364c"/><path d="m426.896 181.531c0 27.059-19.366 45.93-36.713 45.93-2.779-.008-5.54-.45-8.183-1.309 17.901-7.433 29.254-25.255 28.422-44.621 0-22.714-13.694-39.659-28.422-44.513 2.634-.902 5.399-1.363 8.183-1.363 17.346 0 36.713 18.876 36.713 45.876z" fill="#b9354e"/><path d="m352.048 379.302c0 61.225-39.546 110.837-88.35 110.837s-88.195-49.612-88.195-110.837 39.45-110.837 88.195-110.837 88.35 49.635 88.35 110.837z" fill="#ef5261"/><path d="m263.68 444.006c-24.417 0-51.62-26.575-51.62-64.71s27.209-64.71 51.62-64.71c24.507 0 51.811 26.575 51.811 64.71s-27.304 64.71-51.811 64.71z" fill="#da364c"/><path d="m315.449 379.26c0 38.135-27.292 64.734-51.74 64.734-3.916-.012-7.806-.636-11.53-1.847 20.759-6.922 40.048-30.831 40.048-62.887s-19.295-55.894-40.048-62.762c3.711-1.273 7.607-1.923 11.53-1.925 24.448.03 51.74 26.629 51.74 64.687z" fill="#b9354e"/><path d="m148.581 284.43c0 38.589-24.937 69.893-55.714 69.893s-55.589-31.303-55.589-69.893 24.889-69.893 55.589-69.893 55.714 31.297 55.714 69.893z" fill="#ef5261"/><path d="m92.854 325.231c-15.398 0-32.552-16.736-32.552-40.807s17.155-40.807 32.552-40.807 32.654 16.766 32.654 40.813-17.202 40.801-32.654 40.801z" fill="#da364c"/><path d="m125.508 284.406c0 24.023-17.215 40.819-32.636 40.819-2.471-.008-4.925-.401-7.274-1.166 21.875-10.181 31.355-36.167 21.175-58.042-4.343-9.332-11.842-16.831-21.175-21.175 2.342-.797 4.8-1.201 7.274-1.195 15.422-.018 32.636 16.76 32.636 40.759z" fill="#b9354e"/></g></svg>