<svg id="Capa_1" enable-background="new 0 0 490.065 490.065" height="512" viewBox="0 0 490.065 490.065" width="512" xmlns="http://www.w3.org/2000/svg"><g><path d="m430.955 32.988v107.394l-88.405-19.169v-88.225z" fill="#eeefee"/><path d="m436.37 128.69v320.282h-382.601v-320.228l180.066-109.743c6.914-4.223 15.609-4.223 22.522 0z" fill="#eeefee"/><path d="m486.902 184.596c-6.254 10.188-19.572 13.396-29.779 7.173l-20.753-12.379-191.274-116.558-191.327 116.558-20.921 12.325c-3.385 2.088-7.284 3.194-11.261 3.192-11.963-.041-21.628-9.773-21.587-21.736.026-7.51 3.94-14.472 10.344-18.396l43.425-26.019 180.066-109.755c6.914-4.223 15.609-4.223 22.522 0l180.013 109.683 43.276 26.133c10.225 6.211 13.479 19.535 7.268 29.76-.004.006-.008.013-.012.019z" fill="#ef5261"/><path d="m38.001 437.227h414.161c2.991 0 5.415 2.425 5.415 5.415v29.773c0 2.991-2.425 5.415-5.415 5.415h-414.161c-2.991 0-5.415-2.425-5.415-5.415v-29.773c0-2.991 2.424-5.415 5.415-5.415z" fill="#575b6d"/><path d="m336.334 12.235h100.837c2.189 0 3.963 1.774 3.963 3.963v18.225c0 2.189-1.774 3.963-3.963 3.963h-100.837c-2.189 0-3.963-1.774-3.963-3.963v-18.226c0-2.188 1.774-3.962 3.963-3.962z" fill="#575b6d"/><path d="m243.297 283.49c.008 13.981-6.576 27.147-17.765 35.529-7.661 5.751-16.983 8.86-26.563 8.858-24.495-.003-44.349-19.863-44.346-44.358 0-.01 0-.02 0-.03 0-49.827 44.346-101.997 44.346-101.997 12.92 16.757 23.852 34.956 32.576 54.232 3.636 8.14 6.568 16.577 8.763 25.218 1.905 7.369 2.909 14.94 2.989 22.548z" fill="#ef5261"/><path d="m231.534 235.726c-13.15 25.266-24.842 56.294-24.842 87.137 0 1.452.048 2.905.143 4.31 6.794-1.196 13.205-3.993 18.703-8.159 1.277-20.107 6.283-39.8 14.764-58.075-2.196-8.64-5.13-17.075-8.768-25.213z" fill="#da364c"/><path d="m335.378 322.857c0-62.684-59.624-137.179-59.624-137.179s-59.689 70.174-59.689 137.179c-.329 32.947 26.113 59.923 59.06 60.253 32.947.329 59.923-26.113 60.253-59.06.004-.398.004-.796 0-1.193" fill="#ef5261"/></g></svg>