<svg id="Capa_1" enable-background="new 0 0 490.067 490.067" height="512" viewBox="0 0 490.067 490.067" width="512" xmlns="http://www.w3.org/2000/svg"><g><path d="m393.545 341.531c0-156.055-148.44-341.531-148.44-341.531s-148.607 174.71-148.607 341.531c0 82.034 66.502 148.536 148.536 148.536s148.536-66.502 148.536-148.536" fill="#ef5261"/><g fill="#eeefee"><path d="m305.846 250.299h19.229v61.967h-19.229z"/><path d="m284.478 271.668h61.967v19.229h-61.967z"/><path d="m274.519 330.264c0 54.393-26.3 83.24-66.635 83.24-41.739 0-64.286-32.355-64.286-80.191 0-50.209 24.435-83.013 66.635-83.013 43.157-.001 64.286 33.06 64.286 79.964zm-101.512 2.51c0 31.357 5.123 53.461 36.061 53.461 31.16 0 36.282-21.674 36.282-54.991 0-29.181-3.323-53.682-36.061-53.682-32.498.006-36.282 22.977-36.282 55.212z"/></g></g></svg>