<svg id="Capa_1" enable-background="new 0 0 490.139 490.139" height="512" viewBox="0 0 490.139 490.139" width="512" xmlns="http://www.w3.org/2000/svg"><g><path d="m368.417 177.711c-1.274 42.908-14.209 84.659-37.418 120.771h-170.807c-23.533-36.545-38.488-83.192-38.488-120.771 0-67.101 57.035-141.064 123.33-141.064s123.383 70.269 123.383 141.064z" fill="#414451"/><path d="m245.069 65.75c-72.606-.066-80.604 14.567-80.604 14.567l-5.439-63.156c-.736-8.71 5.728-16.368 14.439-17.105.442-.037.885-.056 1.329-.056h140.55c8.741.006 15.823 7.096 15.818 15.838 0 .44-.019.879-.056 1.317l-5.439 63.156s-7.991-14.632-80.598-14.561z" fill="#eeefee"/><path d="m319.134 328.787 44.483 12.128c15.221 4.15 26.706 16.672 29.528 32.194l21.279 117.03h-338.71l21.279-117.024c2.822-15.522 14.307-28.044 29.528-32.194l43.778-12.128 38.255 82.11 30.365 12.289c3.908 1.58 8.307 1.395 12.068-.508l31.68-16.025 21.04-16.587 15.445-61.273" fill="#2cbfae"/><path d="m315.554 381.16c-17.866 19.163-44.232 43.73-70.472 43.15-26.252.598-52.636-23.987-70.532-43.15 2.427-27.549 7.412-58.201 17.675-66.348 19.725-15.637 15.894-55.84 15.894-55.84h73.867s-3.819 40.203 15.894 55.84c10.262 8.147 15.247 38.799 17.674 66.348z" fill="#f4bb87"/><circle cx="245.069" cy="33.013" fill="#ef5261" r="26.133"/><path d="m239.917 17.029h10.305v31.967h-10.305z" fill="#eeefee"/><path d="m229.086 27.86h31.967v10.305h-31.967z" fill="#eeefee"/><path d="m236.635 283.42c-57.98-17.191-64.603-76.175-64.71-101.243-.041-6.387 4.911-11.696 11.285-12.098l9.743-.598c18.839-1.17 35.782-11.865 44.943-28.368l11.62-20.921 9.39 19.845c6.126 12.939 19.157 21.193 33.473 21.201h13.885c6.264.021 11.416 4.939 11.727 11.195 1.369 27.227-2.678 95.804-65.69 111.357-5.162 1.265-10.568 1.137-15.666-.37z" fill="#fed19a"/><g fill="#eeefee"><path d="m351.585 350.15s-5.828-1.554-20.167 13.598c-3.849 4.077-9.289 10.389-15.864 17.418-17.866 19.163-44.232 43.73-70.472 43.15 0 0 56.324-10.759 52.797-109.51z"/><path d="m245.069 424.311c-26.252.598-52.636-23.987-70.532-43.15-6.575-7.023-12.008-13.335-15.864-17.418-14.346-15.146-20.167-13.598-20.167-13.598l53.7-35.35c-3.479 98.733 52.863 109.516 52.863 109.516z"/></g></g></svg>