<svg id="Capa_1" enable-background="new 0 0 490.139 490.139" height="512" viewBox="0 0 490.139 490.139" width="512" xmlns="http://www.w3.org/2000/svg"><g><path d="m202.846 208.458h84.125v96.653h-84.125z" fill="#f4bb87"/><path d="m337.514 133.933v-41.883c0-50.838-41.212-92.05-92.05-92.05-.002 0-.004 0-.006 0-50.838 0-92.05 41.212-92.05 92.05v41.877z" fill="#414451"/><path d="m421.639 341.902v148.237h-353.139v-148.237c.012-24.146 14.595-45.898 36.928-55.081l97.579-37.412 42.062 42.642 42.104-42.636 97.538 37.412c22.33 9.181 36.913 30.93 36.928 55.075z" fill="#eeefee"/><path d="m359.08 417.084h62.558v73.055h-62.558z" fill="#f4bb87"/><path d="m68.5 417.084h62.558v73.055h-62.558z" fill="#f4bb87"/><path d="m312.613 106.994v62.194c-.017 37.292-30.252 67.514-67.544 67.514-37.303 0-67.543-30.24-67.543-67.543v-60.179l21.59-.652c20.631-.62 40.84-5.998 59.05-15.714l27.663-14.758c10.592 8.038 19.663 17.907 26.784 29.138z" fill="#fed19a"/><path d="m344.155 145.547c0 14.159-11.478 25.637-25.637 25.637h-5.906v-51.273h5.929c14.151.013 25.614 11.487 25.614 25.636z" fill="#f4bb87"/><path d="m145.984 145.547c0 14.159 11.478 25.637 25.637 25.637h5.906v-51.273h-5.929c-14.151.013-25.614 11.487-25.614 25.636z" fill="#f4bb87"/><path d="m327.478 380.718c0-31.399-29.887-68.739-29.887-68.739s-29.887 35.152-29.887 68.739c0 16.506 13.381 29.887 29.887 29.887s29.887-13.381 29.887-29.887" fill="#ef5261"/><g fill="#eeefee"><path d="m293.013 364.723h9.169v29.552h-9.169z"/><path d="m282.822 374.914h29.552v9.169h-29.552z"/></g></g></svg>