<svg id="Capa_1" enable-background="new 0 0 490.163 490.163" height="512" viewBox="0 0 490.163 490.163" width="512" xmlns="http://www.w3.org/2000/svg"><g><path d="m410.031 164.997c0 138.333-164.973 325.165-164.973 325.165s-164.974-184.405-164.974-325.165c0-91.125 73.872-164.997 164.997-164.997s164.997 73.872 164.997 164.997z" fill="#69b0ee"/><circle cx="245.057" cy="163.808" fill="#eeefee" r="122.535"/><path d="m243.784 164.908c.007 10.483-4.929 20.355-13.317 26.641-5.748 4.314-12.742 6.645-19.928 6.641-18.364-.003-33.249-14.893-33.246-33.258 0-.008 0-.016 0-.024 0-37.358 33.246-76.474 33.246-76.474 9.685 12.559 17.881 26.198 24.423 40.646 2.728 6.102 4.928 12.428 6.575 18.906 1.431 5.529 2.186 11.211 2.247 16.922z" fill="#ef5261"/><path d="m234.968 129.098c-11.233 20.019-17.605 42.398-18.601 65.332 0 1.088.036 2.182.108 3.234 5.093-.896 9.9-2.992 14.023-6.115.957-15.076 4.711-29.842 11.07-43.545-1.656-6.479-3.864-12.805-6.6-18.906z" fill="#da364c"/><path d="m312.822 194.424c0-46.994-44.698-102.851-44.698-102.851s-44.752 52.6-44.752 102.851c-.017 24.703 19.994 44.742 44.697 44.76 24.703.017 44.742-19.994 44.759-44.697 0-.021 0-.042 0-.063" fill="#ef5261"/></g></svg>