<svg id="Capa_1" enable-background="new 0 0 490.138 490.138" height="512" viewBox="0 0 490.138 490.138" width="512" xmlns="http://www.w3.org/2000/svg"><g><path d="m18.099 87.481h453.94c9.996 0 18.099 8.103 18.099 18.099v278.979c0 9.996-8.103 18.099-18.099 18.099h-453.94c-9.996 0-18.099-8.104-18.099-18.099v-278.979c0-9.996 8.103-18.099 18.099-18.099z" fill="#eeefee"/><g fill="#dbd8dd"><path d="m207.358 122.902h257.897v11.309h-257.897z"/><path d="m207.358 169.657h257.897v11.309h-257.897z"/><path d="m207.358 216.411h131.208v11.309h-131.208z"/><path d="m25.135 354.708h271.961v11.309h-271.961z"/></g><path d="m447.323 322.55c0-48.5-46.133-106.139-46.133-106.139s-46.187 54.298-46.187 106.139c-.004 25.492 20.657 46.16 46.149 46.165 25.492.004 46.16-20.657 46.165-46.149 0-.005 0-.011 0-.016" fill="#ef5261"/><path d="m394.149 295.515h14.041v51.214h-14.041z" fill="#eeefee"/><path d="m375.56 314.104h51.214v14.041h-51.214z" fill="#eeefee"/><path d="m138.5 227.618v47.915h-47.759v-51.997z" fill="#f4bb87"/><path d="m108.327 241.934c-21.315-5.176-24.794-28.046-24.794-28.046-3.331-2.778-6.378-5.88-9.097-9.259-3.275-3.785-5.484-8.373-6.402-13.294-1.955-12.355 7.77-12.355 7.77-12.355l13.664-31.082h50.281l13.664 31.082s9.701 0 7.77 12.355c-.918 4.92-3.127 9.508-6.402 13.294-2.719 3.379-5.767 6.48-9.097 9.259 0 0-3.479 22.863-24.794 28.046-4.127 1.001-8.435 1.001-12.563 0z" fill="#fed19a"/><path d="m151.226 144.558c2.517 2.899 3.903 6.609 3.903 10.448v28.829l-6.151 16.21v-12.271c.05-8.411-2.112-16.687-6.27-23.999-2.612-4.519-5.714-8.195-8.643-7.406-.948.374-1.639 1.206-1.835 2.206-1.011 9.401-9.223 16.353-18.661 15.798-9.835.231-19.489-2.671-27.567-8.285-.031 3.518-1.088 6.95-3.042 9.874-1.876 2.362-2.926 5.275-2.989 8.291v14.136l-5.918-15.027v-23.174c.001-19.599 15.889-35.487 35.488-35.486.195 0 .39.002.585.005l15.726.263c9.82.038 18.874 5.31 23.754 13.831 1.134 1.7 1.701 3.715 1.62 5.757z" fill="#414451"/><path d="m207.358 306.214s-31.464 12.606-92.738 12.606-92.798-12.606-92.798-12.606l.508-12.098c.543-14.162 9.215-26.737 22.259-32.277l33.79-14.346 24.764 17.603c7.487 2.211 15.454 2.211 22.941 0 9.304-4.199 17.697-10.18 24.704-17.603l33.79 14.346c13.06 5.522 21.739 18.108 22.259 32.277z" fill="#69b0ee"/><path d="m90.741 235.867c-.929 11.194 3.701 22.129 12.385 29.253-7.745 2.937-14.206 8.509-18.249 15.738-4.436-11.757-6.665-24.231-6.575-36.796 3.543-3.554 7.776-6.343 12.439-8.195z" fill="#eeefee"/><path d="m138.5 236.489c.862 11.013-3.79 21.737-12.421 28.631 7.733 2.943 14.184 8.515 18.219 15.738 4.453-11.753 6.698-24.228 6.623-36.796-3.564-3.367-7.796-5.947-12.421-7.573z" fill="#eeefee"/></g></svg>