<svg id="Capa_1" enable-background="new 0 0 490.138 490.138" height="512" viewBox="0 0 490.138 490.138" width="512" xmlns="http://www.w3.org/2000/svg"><g><path d="m22.463 435.599v-90.712c0-16.953-3.84-33.686-11.231-48.942-7.389-15.249-11.228-31.973-11.232-48.918v-145.81c0-10.267 8.323-18.59 18.589-18.59h1.279c10.267 0 18.589 8.323 18.589 18.589v111.106c0 2.241 1.817 4.059 4.059 4.059 2.242 0 4.059-1.817 4.059-4.059v-140.908c0-11.267 9.134-20.401 20.401-20.401 11.267 0 20.401 9.134 20.401 20.401v139.63c0 2.241 1.817 4.059 4.059 4.059h.215c2.241 0 4.059-1.817 4.059-4.059v-164.52c0-10.267 8.323-18.589 18.589-18.589 10.267 0 18.589 8.323 18.589 18.589v164.519c0 2.241 1.817 4.059 4.059 4.059 2.242 0 4.059-1.817 4.059-4.059v-139.097c0-10.858 8.802-19.659 19.659-19.659 10.858 0 19.659 8.802 19.659 19.659v138.673c0 2.242 1.817 4.059 4.059 4.059h.424c2.241 0 4.059-1.817 4.059-4.059v-56.623c0-12.036 9.757-21.793 21.793-21.793 12.036 0 21.793 9.757 21.793 21.793v96.342c0 19.629-3.773 39.075-11.112 57.28-7.34 18.207-11.112 17.137-11.112 36.766v91.214z" fill="#eeefee"/><path d="m21.554 430.954h189.355c8.629 0 15.625 6.995 15.625 15.625 0 8.629-6.995 15.625-15.625 15.625h-189.355c-8.629 0-15.625-6.995-15.625-15.625 0-8.629 6.996-15.625 15.625-15.625z" fill="#dbd8dd"/><path d="m467.676 435.599v-90.712c0-16.953 3.84-33.685 11.231-48.942 7.388-15.249 11.228-31.973 11.231-48.918v-145.81c0-10.267-8.323-18.589-18.589-18.589h-1.279c-10.267 0-18.589 8.323-18.589 18.589v111.106c0 2.241-1.817 4.059-4.059 4.059-2.241 0-4.059-1.817-4.059-4.059v-140.909c0-11.267-9.134-20.401-20.401-20.401-11.267 0-20.401 9.134-20.401 20.401v139.63c0 2.241-1.817 4.059-4.059 4.059h-.215c-2.241 0-4.059-1.817-4.059-4.059v-164.52c0-10.267-8.323-18.589-18.589-18.589-10.267 0-18.589 8.323-18.589 18.589v164.519c0 2.241-1.817 4.059-4.059 4.059-2.241 0-4.059-1.817-4.059-4.059v-139.097c0-10.858-8.802-19.659-19.659-19.659-10.858 0-19.659 8.802-19.659 19.659v138.673c0 2.242-1.817 4.059-4.059 4.059h-.436c-2.241 0-4.059-1.817-4.059-4.059v-56.623c0-12.036-9.757-21.793-21.793-21.793-12.036 0-21.793 9.757-21.793 21.793v96.342c0 19.629 3.773 39.075 11.112 57.28 7.34 18.207 11.112 17.137 11.112 36.766v91.214z" fill="#eeefee"/><path d="m279.229 430.954h189.355c8.629 0 15.625 6.995 15.625 15.625 0 8.629-6.995 15.625-15.625 15.625h-189.355c-8.629 0-15.625-6.995-15.625-15.625.001-8.629 6.996-15.625 15.625-15.625z" fill="#dbd8dd"/></g></svg>