<svg id="Capa_1" enable-background="new 0 0 478.187 478.187" height="512" viewBox="0 0 478.187 478.187" width="512" xmlns="http://www.w3.org/2000/svg"><g><path d="m7.931 0 292.081 292.081-15.858 15.863-270.234-270.227z" fill="#eeefee"/><path d="m305.32 279.905 44.352 44.346-33.353 33.347-44.352-44.346c-1.223-1.221-2.176-2.685-2.797-4.298l-2.158-5.607c-.871-2.276-.323-4.851 1.399-6.575l20.406-20.406c1.724-1.722 4.299-2.269 6.575-1.399l5.607 2.158c1.618.614 3.091 1.561 4.321 2.78z" fill="#bbbbcd"/><path d="m381.614 334.083 68.966 68.966-55.481 55.463-68.948-68.966c-2.079-2.075-3.771-4.504-4.997-7.173l-7.507-16.396c-1.076-2.349-.578-5.119 1.249-6.946l36.187-36.187c1.825-1.839 4.602-2.344 6.958-1.267l16.396 7.507c2.669 1.228 5.1 2.92 7.177 4.999z" fill="#dbd8dd"/><path d="m392.882 457.086 56.273-56.273c4.827-4.827 12.654-4.827 17.481 0 4.827 4.827 4.827 12.654 0 17.481l-56.273 56.273c-4.827 4.827-12.654 4.827-17.481 0-4.828-4.828-4.828-12.654 0-17.481z" fill="#bbbbcd"/></g></svg>