<svg id="Capa_1" enable-background="new 0 0 490.138 490.138" height="512" viewBox="0 0 490.138 490.138" width="512" xmlns="http://www.w3.org/2000/svg"><g><g fill="#eeefee"><path d="m474.598 172.538h-458.411c-3.47.002-6.284-2.809-6.286-6.279-.001-2.199 1.147-4.238 3.028-5.377l236.45-143.455 228.56 143.515c2.935 1.851 3.814 5.73 1.963 8.665-1.149 1.821-3.151 2.927-5.304 2.931z"/><path d="m470.563 442.443h-450.987c.634-20.137 17.453-35.958 37.591-35.362h375.793c20.143-.604 36.969 15.22 37.603 35.362z"/><path d="m361.686 189.579h52.367v204.226h-52.367z"/></g><path d="m425.936 172.538v13.353c0 5.784-4.689 10.472-10.472 10.472h-55.188c-5.784.003-10.475-4.683-10.478-10.466 0-.002 0-.004 0-.006v-13.329z" fill="#dbd8dd"/><path d="m425.936 407.816v-13.317c0-5.784-4.689-10.472-10.472-10.472h-55.188c-5.784-.003-10.475 4.683-10.478 10.466v.006 13.329z" fill="#dbd8dd"/><path d="m218.889 189.579h52.367v204.226h-52.367z" fill="#eeefee"/><path d="m283.139 172.538v13.353c0 5.784-4.689 10.472-10.472 10.472h-55.194c-5.784 0-10.472-4.689-10.472-10.472v-13.329z" fill="#dbd8dd"/><path d="m283.139 407.816v-13.317c0-5.784-4.689-10.472-10.472-10.472h-55.194c-5.784 0-10.472 4.689-10.472 10.472v13.329z" fill="#dbd8dd"/><path d="m76.085 189.579h52.367v204.226h-52.367z" fill="#eeefee"/><path d="m140.341 172.538v13.353c0 5.784-4.689 10.472-10.472 10.472h-55.195c-5.784 0-10.472-4.689-10.472-10.472v-13.329z" fill="#dbd8dd"/><path d="m140.341 407.816v-13.317c0-5.784-4.689-10.472-10.472-10.472h-55.195c-5.784 0-10.472 4.689-10.472 10.472v13.329z" fill="#dbd8dd"/><path d="m490.138 463.423v9.289h-490.138v-9.289c.003-11.657 9.454-21.106 21.112-21.106h447.915c11.657 0 21.108 9.449 21.111 21.106z" fill="#dbd8dd"/><path d="m270.616 118.915c0-26.868-25.547-58.745-25.547-58.745s-25.565 30.054-25.565 58.745c-.013 14.109 11.414 25.557 25.524 25.57 14.109.013 25.557-11.414 25.57-25.524 0-.016 0-.031 0-.047" fill="#ef5261"/><path d="m241.184 103.948h7.771v28.344h-7.771z" fill="#eeefee"/><path d="m230.897 114.235h28.344v7.771h-28.344z" fill="#eeefee"/></g></svg>