<svg id="Capa_1" enable-background="new 0 0 490.139 490.139" height="512" viewBox="0 0 490.139 490.139" width="512" xmlns="http://www.w3.org/2000/svg"><g><path d="m113.322 0c-19.596.003-35.479 15.892-35.476 35.487.003 19.596 15.891 35.479 35.487 35.475 19.596-.003 35.479-15.891 35.475-35.487 0-.002 0-.004 0-.006-.003-19.592-15.888-35.472-35.481-35.469-.001 0-.003 0-.005 0zm0 60.969c-14.086-.003-25.502-11.425-25.499-25.511s11.425-25.502 25.511-25.499c14.081.003 25.496 11.418 25.499 25.499-.014 14.083-11.428 25.497-25.511 25.511z" fill="#eeefee"/><path d="m210.058 57.98v169.612c.001 3.379-1.709 6.528-4.543 8.368l-53.252 34.609h-7.478v10.251c0 4.896-3.969 8.864-8.864 8.864h-.43c-4.896 0-8.864-3.969-8.864-8.864v-10.257h-5.541v19.127h-16.533v-19.127h-6.748v10.251c0 4.896-3.969 8.864-8.864 8.864-4.896 0-8.864-3.969-8.864-8.864v-10.251h-7.501l-51.56-34.597c-2.761-1.853-4.417-4.959-4.417-8.285v-169.701c0-11.023 8.936-19.958 19.958-19.958h153.533c11.023-.007 19.964 8.924 19.97 19.946-.002.004-.002.008-.002.012z" fill="#eeefee"/><path d="m75.617 260.61-49.014-32.875v-169.755c.007-5.507 4.469-9.97 9.976-9.976h153.509c5.514-.003 9.987 4.462 9.994 9.976v169.612l-50.771 33.019h-73.694z" fill="#ef5261"/><path d="m43.758 96.223h139.146v19.127h-139.146z" fill="#575b6d"/><path d="m43.758 115.35h139.146v81.769h-139.146z" fill="#eeefee"/><g fill="#ef5261"><path d="m133.28 258.369h4.854v26.324h-4.854z"/><path d="m109.036 258.369h7.43v31.315h-7.43z"/><path d="m86.023 258.369h4.854v26.324h-4.854z"/></g><path d="m54.284 154.98h64.31v3.891h-64.31z" fill="#dbd8dd"/><path d="m54.284 169.11h118.637v3.891h-118.637z" fill="#dbd8dd"/><path d="m54.284 183.246h118.637v3.891h-118.637z" fill="#dbd8dd"/><path d="m144.768 147.926-3.586 10.944h-4.644l11.817-34.788h5.421l11.871 34.788h-4.782l-3.718-10.944zm11.405-3.508-3.407-10.012c-.777-2.271-1.291-4.334-1.793-6.348h-.108c-.514 2.068-1.082 4.184-1.751 6.3l-3.407 10.066z" fill="#414451"/><path d="m428.301 162.242c2.155-.003 4.15-1.138 5.254-2.989l12.116-20.263s12.283-19.074 24.71-12.552c2.498 1.335 3.716 4.24 2.917 6.958-2.053 5.231-5.134 9.997-9.062 14.017-1.709 1.944-3.236 4.041-4.561 6.264l-.06.096c-4.038 6.841-7.118 14.204-9.151 21.883-.716 2.672-1.718 5.26-2.989 7.717-11.422 22.308-24.214 43.887-38.303 64.615-4.077 5.862-6.095 12.91-5.738 20.042l9.767 195.308h-109.981l8.249-186.809c.349-6.797-.476-13.603-2.439-20.12-1.932-5.752-4.907-11.099-8.775-15.774-16.414-20.466-7.292-69.498-7.292-69.498l.377-12.965c.307-10.641-.013-21.291-.956-31.895l-5.463-61.722c-.392-4.427 2.577-8.451 6.922-9.384 4.755-1.017 9.434 2.012 10.452 6.767.054.251.096.504.128.758l8.368 67.908c.256 2.059 2.079 3.557 4.148 3.407l1.058-.078c2.094-.15 3.693-1.931 3.616-4.029l-3.557-96.019c-.274-7.409 5.511-13.638 12.92-13.912.517-.019 1.035-.008 1.551.032 6.834.537 12.165 6.137 12.367 12.989l2.869 97.065c.065 2.151 1.861 3.843 4.013 3.778.005 0 .011 0 .016-.001l1.124-.036c2.103-.071 3.77-1.799 3.766-3.903l-.263-116.282c-.014-7.506 6.061-13.602 13.568-13.615h.066c7.507-.001 13.593 6.085 13.593 13.591 0 .052 0 .104-.001.156l-1.052 116.031c-.02 2.152 1.709 3.913 3.861 3.933h.036c2.06.001 3.765-1.602 3.891-3.658l6.635-106.994c.376-6.092 5.619-10.726 11.711-10.351.245.015.49.038.733.07 5.475.704 9.591 5.341 9.641 10.861l1.195 130.712c.057 4.379 3.626 7.898 8.005 7.891z" fill="#fed19a"/><path d="m332.025 318.1h44.698c5.658 0 10.245 4.587 10.245 10.245 0 5.658-4.587 10.245-10.245 10.245h-44.698c-5.658 0-10.245-4.587-10.245-10.245 0-5.658 4.587-10.245 10.245-10.245z" fill="#f4bb87"/><path d="m343.645 373.737h21.459c.739 0 1.339.599 1.339 1.339v2.283c0 .739-.599 1.339-1.339 1.339h-21.459c-.739 0-1.339-.599-1.339-1.339v-2.283c0-.74.599-1.339 1.339-1.339z" fill="#fff"/><path d="m346.436 406.259h15.882c.739 0 1.339.599 1.339 1.339v2.283c0 .739-.599 1.339-1.339 1.339h-15.882c-.739 0-1.339-.599-1.339-1.339v-2.283c0-.739.6-1.339 1.339-1.339z" fill="#fff"/><path d="m357.727 411.214-1.978 28.584h-2.744l-1.984-28.584z" fill="#dbd8dd"/><path d="m181.887 490.139c-40.214-.04-72.805-32.626-72.851-72.839v-127.616h7.448v127.615c.022 36.118 29.319 65.38 65.437 65.358 36.087-.022 65.336-29.271 65.358-65.358v-224.035c0-30.604 24.809-55.413 55.413-55.413s55.413 24.809 55.413 55.413v180.473h-7.448v-180.473c.017-26.489-21.442-47.976-47.931-47.993s-47.976 21.442-47.993 47.931v.062 224.029c-.043 40.214-32.632 72.803-72.846 72.846z" fill="#ef5261"/><path d="m363.436 378.704-1.943 27.585h-14.232l-1.943-27.585z" fill="#dbd8dd"/><path d="m346.352 320.324h16.043v16.043h-16.043z" fill="#dda97a"/><path d="m350.68 373.707h7.448v32.576h-7.448z" fill="#ef5261" opacity=".3"/></g></svg>