<svg id="Capa_1" enable-background="new 0 0 490.067 490.067" height="512" viewBox="0 0 490.067 490.067" width="512" xmlns="http://www.w3.org/2000/svg"><g><path d="m393.545 341.531c0-156.055-148.44-341.531-148.44-341.531s-148.607 174.71-148.607 341.531c0 82.034 66.502 148.536 148.536 148.536s148.536-66.502 148.536-148.536" fill="#ef5261"/><g fill="#eeefee"><path d="m319.702 249.755h13.891v50.664h-13.891z"/><path d="m301.322 268.142h50.664v13.891h-50.664z"/><path d="m162.893 363.276-10.867 32.875h-13.963l35.535-104.603h16.3l35.702 104.603h-14.44l-11.172-32.875zm34.31-10.556-10.239-30.108c-2.337-6.826-3.879-13.036-5.433-19.091h-.317c-1.554 6.21-3.258 12.552-5.272 18.936l-10.257 30.263z"/><path d="m241.011 292.965c8.139-1.505 16.403-2.234 24.68-2.176 13.509 0 22.194 2.325 28.691 7.609 5.763 4.349 9.016 11.257 8.697 18.47-.354 10.661-7.475 19.907-17.693 22.971v.311c12.503 2.542 21.512 13.5 21.59 26.258.12 7.915-3.09 15.516-8.846 20.95-7.292 6.671-19.097 9.773-36.169 9.773-7.003.051-14.002-.362-20.95-1.237zm13.508 42.834h12.259c14.28 0 22.66-7.448 22.66-17.537 0-12.265-9.313-17.071-22.977-17.071-4.006-.107-8.013.204-11.955.926zm0 50.131c3.752.497 7.537.697 11.321.598 13.975 0 26.856-5.117 26.856-20.323 0-14.274-12.259-20.173-27.005-20.173h-11.172z"/></g></g></svg>