<svg id="Capa_1" enable-background="new 0 0 490.174 490.174" height="512" viewBox="0 0 490.174 490.174" width="512" xmlns="http://www.w3.org/2000/svg"><g><path d="m380.61 254.782h9.127c12.542-.021 24.454 5.498 32.546 15.081 7.321 8.736 18.153 13.758 29.552 13.7 20.459-.788 37.009-16.92 38.32-37.352.634-21.22-16.055-38.937-37.275-39.571-11.732-.351-22.981 4.678-30.543 13.653-8.106 9.597-20.038 15.123-32.6 15.099h-9.145c-4.251.019-7.859-3.111-8.44-7.322-1.436-10.93-4.285-21.627-8.476-31.823-1.599-3.935-.041-8.447 3.646-10.556l7.878-4.549c10.851-6.29 23.926-7.467 35.726-3.216 10.709 3.906 22.602 2.839 32.445-2.911 17.309-10.912 23.572-33.139 14.507-51.482-10.033-18.709-33.334-25.743-52.043-15.71-10.377 5.565-17.632 15.579-19.685 27.174-2.219 12.353-9.776 23.097-20.652 29.36l-7.914 4.567c-3.666 2.136-8.346 1.235-10.956-2.11-6.742-8.735-14.576-16.57-23.311-23.311-3.345-2.61-4.246-7.291-2.11-10.956l4.567-7.914c6.269-10.868 17.02-18.412 29.372-20.61 11.232-1.977 20.998-8.858 26.641-18.769 9.523-18.108 3.823-40.485-13.204-51.829-18.061-11.159-41.748-5.564-52.907 12.496-6.169 9.985-7.439 22.241-3.447 33.278 4.255 11.806 3.082 24.888-3.204 35.75l-4.549 7.878c-2.109 3.687-6.621 5.246-10.556 3.646-10.196-4.19-20.893-7.04-31.823-8.476-4.211-.581-7.341-4.189-7.322-8.44v-9.121c-.02-12.542 5.499-24.454 15.081-32.546 8.736-7.321 13.758-18.153 13.7-29.552-.788-20.457-16.916-37.006-37.346-38.32-21.22-.634-38.937 16.055-39.571 37.275-.351 11.732 4.678 22.981 13.653 30.543 9.597 8.106 15.123 20.038 15.099 32.6v9.145c.019 4.251-3.111 7.859-7.322 8.44-10.931 1.434-21.631 4.281-31.829 8.47-3.935 1.599-8.447.041-10.556-3.646l-4.543-7.872c-6.291-10.851-7.468-23.926-3.216-35.726 3.906-10.709 2.839-22.602-2.911-32.445-10.912-17.309-33.139-23.572-51.482-14.507-18.709 10.033-25.743 33.334-15.71 52.043 5.565 10.377 15.579 17.632 27.174 19.685 12.353 2.219 23.097 9.776 29.36 20.652l4.567 7.908c2.136 3.666 1.235 8.346-2.11 10.956-8.736 6.741-16.57 14.576-23.311 23.311-2.61 3.345-7.291 4.246-10.956 2.11l-7.908-4.567c-10.869-6.266-18.415-17.015-20.616-29.366-1.978-11.232-8.858-20.998-18.769-26.641-18.107-9.524-40.483-3.827-51.829 13.198-11.163 18.058-5.574 41.746 12.484 52.91 9.987 6.174 22.249 7.445 33.29 3.45 11.806-4.255 24.888-3.082 35.75 3.204l7.872 4.549c3.687 2.109 5.246 6.621 3.646 10.556-4.188 10.199-7.035 20.898-8.47 31.829-.581 4.211-4.189 7.341-8.44 7.322h-9.121c-12.542.021-24.454-5.498-32.546-15.081-7.321-8.736-18.153-13.758-29.552-13.7-20.455.788-37.003 16.913-38.32 37.34-.634 21.22 16.055 38.937 37.275 39.571 11.732.351 22.981-4.678 30.544-13.653 8.106-9.597 20.038-15.123 32.6-15.099h9.145c4.251-.019 7.859 3.111 8.44 7.322 1.435 10.931 4.282 21.63 8.47 31.829 1.596 3.934.038 8.441-3.646 10.55l-7.866 4.543c-10.851 6.291-23.926 7.468-35.726 3.216-10.709-3.906-22.602-2.839-32.445 2.911-17.314 10.91-23.581 33.142-14.513 51.488 10.033 18.709 33.334 25.743 52.043 15.71 10.377-5.565 17.632-15.579 19.685-27.174 2.219-12.353 9.776-23.097 20.652-29.361l7.896-4.561c3.659-2.099 8.305-1.19 10.903 2.134 6.741 8.736 14.575 16.571 23.311 23.311 3.345 2.61 4.246 7.291 2.11 10.956l-4.561 7.896c-6.257 10.848-16.98 18.385-29.307 20.598-11.227 1.973-20.992 8.844-26.641 18.745-9.524 18.107-3.827 40.483 13.198 51.829 18.058 11.163 41.746 5.574 52.91-12.484 6.174-9.987 7.445-22.249 3.45-33.29-4.255-11.806-3.082-24.888 3.204-35.75l4.543-7.866c2.109-3.684 6.616-5.242 10.55-3.646 10.199 4.188 20.898 7.035 31.829 8.47 4.211.581 7.341 4.189 7.322 8.44v9.139c.02 12.542-5.499 24.454-15.081 32.546-8.736 7.321-13.758 18.153-13.7 29.552.788 20.459 16.92 37.009 37.352 38.32 21.22.634 38.937-16.055 39.571-37.275.35-11.732-4.678-22.981-13.653-30.544-9.597-8.106-15.123-20.038-15.099-32.6v-9.145c-.019-4.251 3.111-7.859 7.322-8.44 10.931-1.434 21.63-4.281 31.829-8.47 3.935-1.599 8.447-.041 10.556 3.646l4.549 7.872c6.291 10.851 7.468 23.926 3.216 35.726-3.906 10.709-2.839 22.602 2.911 32.445 10.911 17.306 33.135 23.569 51.477 14.507 18.709-10.033 25.743-33.334 15.71-52.043-5.565-10.377-15.579-17.632-27.174-19.685-12.353-2.219-23.097-9.776-29.361-20.652l-4.567-7.908c-2.136-3.666-1.235-8.346 2.11-10.956 8.736-6.741 16.57-14.576 23.311-23.311 2.61-3.345 7.291-4.246 10.956-2.11l7.902 4.567c10.872 6.265 18.419 17.014 20.622 29.367 1.973 11.227 8.844 20.992 18.745 26.641 18.107 9.524 40.483 3.827 51.829-13.198 11.163-18.058 5.574-41.746-12.484-52.91-9.987-6.174-22.249-7.445-33.29-3.45-11.806 4.254-24.888 3.082-35.75-3.204l-7.872-4.543c-3.687-2.109-5.246-6.621-3.646-10.556 4.189-10.199 7.036-20.898 8.47-31.829.584-4.214 4.202-7.343 8.457-7.315z" fill="#f6c863"/><g fill="#eab54e"><ellipse cx="253.622" cy="158.535" rx="22.439" ry="22.439" transform="matrix(.13 -.992 .992 .13 63.522 389.446)"/><circle cx="193.778" cy="244.74" r="32.774"/><circle cx="302.068" cy="218.733" r="22.797"/><circle cx="279.271" cy="306.187" r="25.649"/><circle cx="193.778" cy="307.789" r="14.25"/><circle cx="337.334" cy="271.453" r="6.055"/><circle cx="185.403" cy="175.278" r="10.687"/></g></g></svg>