<svg id="Capa_1" enable-background="new 0 0 490.139 490.139" height="512" viewBox="0 0 490.139 490.139" width="512" xmlns="http://www.w3.org/2000/svg"><g><path d="m30.862 310.264 279.402-279.402c41.149-41.149 107.864-41.149 149.013 0 41.149 41.149 41.149 107.864 0 149.013l-279.403 279.402c-41.149 41.149-107.864 41.149-149.013 0-41.148-41.149-41.148-107.864.001-149.013z" fill="#f4bb87"/><path d="m134.882 238.314 110.732-110.732c1.716-1.716 4.497-1.716 6.213 0l110.733 110.732c1.716 1.716 1.716 4.497 0 6.213l-110.732 110.733c-1.716 1.716-4.497 1.716-6.213 0l-110.733-110.733c-1.715-1.715-1.715-4.497 0-6.213z" fill="#fed19a"/><g fill="#dca078"><ellipse cx="398.375" cy="38.663" rx="7.304" ry="7.274" transform="matrix(.707 -.707 .707 .707 89.349 293.025)"/><ellipse cx="442.718" cy="55.835" rx="7.304" ry="7.274" transform="matrix(.707 -.707 .707 .707 90.194 329.411)"/><ellipse cx="455.788" cy="106.407" rx="7.304" ry="7.274" transform="matrix(.707 -.707 .707 .707 58.262 353.466)"/><ellipse cx="454.209" cy="144.459" rx="7.304" ry="7.274" transform="matrix(.707 -.707 .707 .707 30.892 363.495)"/><ellipse cx="359.571" cy="77.471" rx="7.304" ry="7.274" transform="matrix(.707 -.707 .707 .707 50.541 276.953)"/><ellipse cx="324.841" cy="139.756" rx="7.304" ry="7.274" transform="matrix(.707 -.707 .707 .707 -3.676 270.639)"/><ellipse cx="286.177" cy="116.712" rx="7.304" ry="7.274" transform="matrix(.707 -.707 .707 .707 1.295 236.549)"/><ellipse cx="347.876" cy="178.411" rx="7.304" ry="7.274" transform="matrix(.707 -.707 .707 .707 -24.262 298.25)"/><ellipse cx="381.082" cy="211.613" rx="7.304" ry="7.274" transform="matrix(.707 -.707 .707 .707 -38.014 331.455)"/><ellipse cx="412.835" cy="123.745" rx="7.304" ry="7.274" transform="matrix(.707 -.707 .707 .707 33.421 328.172)"/><ellipse cx="425.268" cy="167.77" rx="7.304" ry="7.274" transform="matrix(.707 -.707 .707 .707 5.931 349.858)"/><ellipse cx="385.545" cy="166.361" rx="7.304" ry="7.274" transform="matrix(.707 -.707 .707 .707 -4.708 321.357)"/><ellipse cx="366.044" cy="122.216" rx="7.304" ry="7.274" transform="matrix(.707 -.707 .707 .707 20.796 294.636)"/><ellipse cx="402.523" cy="85.737" rx="7.304" ry="7.274" transform="matrix(.707 -.707 .707 .707 57.276 309.747)"/><ellipse cx="330.107" cy="106.935" rx="7.304" ry="7.274" transform="matrix(.707 -.707 .707 .707 21.075 264.749)"/><ellipse cx="310.726" cy="70.883" rx="7.304" ry="7.274" transform="matrix(.707 -.707 .707 .707 40.892 240.484)"/><ellipse cx="350.82" cy="41.08" rx="7.304" ry="7.274" transform="matrix(.707 -.707 .707 .707 73.71 260.106)"/><ellipse cx="38.668" cy="398.379" rx="7.304" ry="7.274" transform="matrix(.707 -.707 .707 .707 -270.377 144.032)"/><ellipse cx="55.844" cy="442.713" rx="7.304" ry="7.274" transform="matrix(.707 -.707 .707 .707 -296.696 169.163)"/><ellipse cx="106.409" cy="455.788" rx="7.304" ry="7.274" transform="matrix(.707 -.707 .707 .707 -291.13 208.749)"/><ellipse cx="144.465" cy="454.209" rx="7.304" ry="7.274" transform="matrix(.707 -.707 .707 .707 -278.867 235.197)"/><ellipse cx="77.472" cy="359.566" rx="7.304" ry="7.274" transform="matrix(.707 -.707 .707 .707 -231.565 160.103)"/><ellipse cx="139.754" cy="324.836" rx="7.304" ry="7.274" transform="matrix(.707 -.707 .707 .707 -188.763 193.971)"/><ellipse cx="116.715" cy="286.176" rx="7.304" ry="7.274" transform="matrix(.707 -.707 .707 .707 -168.175 166.356)"/><ellipse cx="178.414" cy="347.878" rx="7.304" ry="7.274" transform="matrix(.707 -.707 .707 .707 -193.734 228.058)"/><ellipse cx="211.613" cy="381.078" rx="7.304" ry="7.274" transform="matrix(.707 -.707 .707 .707 -207.485 261.258)"/><ellipse cx="123.749" cy="412.837" rx="7.304" ry="7.274" transform="matrix(.707 -.707 .707 .707 -255.679 208.43)"/><ellipse cx="167.766" cy="425.268" rx="7.304" ry="7.274" transform="matrix(.707 -.707 .707 .707 -251.577 243.196)"/><ellipse cx="166.363" cy="385.541" rx="7.304" ry="7.274" transform="matrix(.707 -.707 .707 .707 -223.896 230.568)"/><ellipse cx="122.218" cy="366.046" rx="7.304" ry="7.274" transform="matrix(.707 -.707 .707 .707 -223.041 193.641)"/><ellipse cx="85.744" cy="402.525" rx="7.304" ry="7.274" transform="matrix(.707 -.707 .707 .707 -259.519 178.535)"/><ellipse cx="106.944" cy="330.101" rx="7.304" ry="7.274" transform="matrix(.707 -.707 .707 .707 -202.097 172.313)"/><ellipse cx="70.881" cy="310.726" rx="7.304" ry="7.274" transform="matrix(.707 -.707 .707 .707 -198.96 141.136)"/><ellipse cx="41.076" cy="350.821" rx="7.304" ry="7.274" transform="matrix(.707 -.707 .707 .707 -236.042 131.805)"/></g></g></svg>