<svg id="Capa_1" enable-background="new 0 0 488.41 488.41" height="512" viewBox="0 0 488.41 488.41" width="512" xmlns="http://www.w3.org/2000/svg"><g><g fill="#eeefee"><path d="m83.986 164.707-1.835 2.098c-3.609 4.123-3.219 10.385.873 14.029l91.453 81.411c4.116 3.668 10.425 3.305 14.094-.81.057-.064.113-.129.168-.194l13.748-16.27-104.855-81.585c-4.179-3.247-10.167-2.668-13.646 1.321z"/><path d="m443.347 310.182-.819 1.883c-2.1 4.834-7.596 7.203-12.552 5.409l-83.084-30.084h-114.035c-5.513 0-9.982-4.469-9.982-9.982v-2.66c0-5.513 4.469-9.982 9.982-9.982h119.409l85.434 32.092c5.162 1.937 7.776 7.691 5.839 12.853-.061.159-.124.316-.192.471z"/><path d="m197.65 214.175 51.871-42.014h62.6c9.306 0 16.85 7.544 16.85 16.85 0 9.306-7.544 16.85-16.85 16.85h-58.028l-44.925 32.032z"/></g><path d="m211.183 245.675c-6.499 7.119-17.469 7.811-24.812 1.566l-133.82-113.772c-7.53-6.402-8.445-17.696-2.044-25.226.565-.665 1.178-1.288 1.834-1.863l.783-.687c6.704-5.884 16.718-5.932 23.479-.114l133.031 114.465c7.493 6.446 8.342 17.745 1.896 25.238-.113.133-.229.264-.347.393z" fill="#f6c863"/><path d="m50.238 108.466c-7.864 5.981-19.088 4.455-25.07-3.409-.497-.653-.948-1.339-1.35-2.054l-21.518-38.255c-4.844-8.612-1.789-19.519 6.823-24.363.116-.065.233-.129.35-.192l.293-.155c8.623-4.578 19.325-1.396 24.047 7.149l21.225 38.386c4.301 7.765 2.258 17.51-4.8 22.893z" fill="#f6c863"/><path d="m231.213 233.727h118.948c4.959 0 9.877.904 14.513 2.666l111.722 42.439c9.616 3.654 14.448 14.411 10.794 24.027-.089.234-.182.466-.28.695-3.896 9.117-14.251 13.584-23.557 10.161l-116.928-42.965h-115.212c-5.513 0-9.982-4.469-9.982-9.982v-17.053c-.003-5.513 4.463-9.985 9.976-9.988z" fill="#f6c863"/><path d="m232.044 283.231 114.435 95.23-64.1 26.24-94.011-84.447 34.525-9.874z" fill="#eeefee"/><path d="m238.284 289.71c0 22.448-18.198 40.646-40.646 40.646s-40.646-18.198-40.646-40.646 18.198-40.646 40.646-40.646 40.646 18.198 40.646 40.646z" fill="#828a9e"/><circle cx="197.65" cy="289.71" fill="#dbd8dd" r="20.67"/><path d="m354.345 418.013v-17.89c-.002-18.315-14.568-33.307-32.875-33.837l-9.785-.293c-24.824-.737-47.43 14.214-56.468 37.346l-5.732 14.668z" fill="#828a9e"/><path d="m129.33 414.582h270.323c9.907 0 17.938 8.031 17.938 17.938v.006c0 9.907-8.031 17.938-17.938 17.938h-270.323c-9.907 0-17.938-8.031-17.938-17.938v-.006c0-9.907 8.031-17.938 17.938-17.938z" fill="#eeefee"/></g></svg>