<svg id="Capa_1" enable-background="new 0 0 490.032 490.032" height="512" viewBox="0 0 490.032 490.032" width="512" xmlns="http://www.w3.org/2000/svg"><g><path d="m244.895 209.577-19.988-5.26 35.601-138.626c3.094-11.799-3.963-23.872-15.762-26.966-.139-.036-.279-.072-.419-.105l-31.596-7.645 4.854-20.09 31.62 7.633c22.953 5.546 37.063 28.649 31.517 51.602-.065.268-.132.535-.202.801z" fill="#eeefee"/><path d="m232.373 26.122c-1.739 11.572-26.515 17.179-36.665 15.655-10.753-2.294-17.611-12.869-15.32-23.622 1.005-10.933 10.645-19.005 21.584-18.075 10.161 1.523 32.122 14.571 30.401 26.042z" fill="#62667c"/><path d="m71.356 209.577 19.988-5.242-35.601-138.625c-3.094-11.799 3.963-23.872 15.762-26.966.139-.036.279-.072.419-.105l31.62-7.633-4.854-20.09-31.62 7.633c-22.953 5.546-37.063 28.649-31.517 51.602.065.268.132.535.202.801z" fill="#eeefee"/><path d="m83.879 26.122c1.739 11.572 26.515 17.179 36.665 15.655 10.753-2.294 17.611-12.869 15.32-23.622-1.002-10.935-10.643-19.011-21.584-18.081-10.15 1.529-32.123 14.577-30.401 26.048z" fill="#62667c"/><path d="m158.123 273.498c-40.12 0-74.621-22.116-88.374-54.644-3.213-7.695.421-16.537 8.116-19.75 1.062-.443 2.171-.764 3.306-.955l.879-.149c6.989-1.06 13.802 2.779 16.515 9.307 9.265 20.681 32.875 35.194 59.558 35.194s50.245-14.507 59.492-35.218c2.722-6.524 9.54-10.353 16.527-9.283l.879.149c8.222 1.388 13.763 9.178 12.375 17.401-.191 1.132-.511 2.239-.953 3.298-13.742 32.522-48.231 54.65-88.32 54.65z" fill="#575b6d"/><path d="m302.869 490.032h-45.541c-63.33-.076-114.65-51.398-114.722-114.728v-112.14h30.998v112.14c.053 46.219 37.505 83.674 83.724 83.73h45.541c46.223-.049 83.683-37.507 83.736-83.73v-185.775h30.998v185.774c-.072 63.336-51.399 114.66-114.734 114.729z" fill="#575b6d"/><path d="m455.684 147.533c.03 29.595-23.938 53.611-53.533 53.64-29.595.03-53.611-23.938-53.64-53.533s23.938-53.61 53.533-53.64h.102c29.557.023 53.512 23.976 53.538 53.533z" fill="#62667c"/><path d="m402.14 170.474c-12.653.02-22.927-10.222-22.947-22.875s10.222-22.927 22.875-22.947 22.927 10.222 22.947 22.875v.006c-.023 12.635-10.241 22.882-22.875 22.941z" fill="#9a9eaf"/></g></svg>