<svg id="Capa_1" enable-background="new 0 0 484.161 484.161" height="512" viewBox="0 0 484.161 484.161" width="512" xmlns="http://www.w3.org/2000/svg"><g><path d="m229.702 231.322v11.955h-29.349c-3.301 0-5.977-2.676-5.977-5.977 0-3.301 2.676-5.977 5.977-5.977z" fill="#dbd8dd"/><path d="m320.258 25.541v6.378c8.996-.003 16.291 7.286 16.294 16.282v.012c0 .556-.048 1.064-.102 1.62-.894 8.945-8.87 15.471-17.814 14.577-7.709-.771-13.806-6.868-14.577-14.577h-6.426c.886 12.493 11.732 21.903 24.225 21.017 11.26-.798 20.219-9.757 21.017-21.017.048-.556.048-1.064.048-1.62.02-12.502-10.099-22.652-22.6-22.672-.021 0-.043 0-.065 0z" fill="#eeefee"/><path d="m382.105 62.582v108.404c.002 2.164-1.082 4.185-2.887 5.38l-34.071 22.116h-4.782v6.575c.003 3.126-2.528 5.663-5.655 5.666-.004 0-.008 0-.012 0h-.269c-3.126.01-5.669-2.516-5.679-5.642 0-.02 0-.04 0-.06v-6.575h-3.545v12.247h-10.58v-12.247h-4.304v6.575c0 3.136-2.542 5.678-5.678 5.678s-5.678-2.542-5.678-5.678v-6.575h-4.782l-32.933-22.116c-1.772-1.165-2.837-3.145-2.833-5.266v-108.482c.007-7.042 5.714-12.749 12.756-12.756h98.177c7.041.007 12.748 5.714 12.755 12.756z" fill="#eeefee"/><path d="m296.151 192.104-31.357-21.034v-108.494c-.003-3.526 2.852-6.386 6.378-6.39h.006 98.159c3.521.003 6.375 2.857 6.378 6.378v108.446l-32.457 21.094z" fill="#ef5261"/><path d="m275.781 87.029h88.954v12.224h-88.954z" fill="#575b6d"/><path d="m275.781 99.253h88.954v52.271h-88.954z" fill="#eeefee"/><path d="m333.013 190.682h3.102v16.832h-3.102z" fill="#ef5261"/><path d="m317.514 190.682h4.752v20.018h-4.752z" fill="#ef5261"/><path d="m302.804 190.682h3.102v16.832h-3.102z" fill="#ef5261"/><g fill="#dbd8dd"><path d="m282.511 124.591h41.112v2.487h-41.112z"/><path d="m282.511 133.623h75.846v2.487h-75.846z"/><path d="m282.511 142.66h75.846v2.487h-75.846z"/></g><path d="m340.353 120.084-2.313 6.993h-2.989l7.555-22.242h3.467l7.591 22.242h-3.072l-2.391-6.993zm7.293-2.242-2.158-6.408c-.496-1.452-.825-2.773-1.154-4.059h-.066c-.329 1.321-.693 2.672-1.118 4.029l-2.182 6.438z" fill="#414451"/><path d="m212.039 7.591h23.634v439.81h-23.634z" fill="#eeefee"/><path d="m129.875 430.168h187.962v23.634h-187.962z" fill="#dbd8dd"/><path d="m117.239 399.816h8.434c8.385 0 15.182 6.797 15.182 15.182v53.981c0 8.385-6.797 15.182-15.182 15.182h-8.434c-8.385 0-15.182-6.797-15.182-15.182v-53.981c-.001-8.385 6.797-15.182 15.182-15.182z" fill="#62667c"/><path d="m308.554 399.816h8.434c8.385 0 15.182 6.797 15.182 15.182v53.981c0 8.385-6.797 15.182-15.182 15.182h-8.434c-8.385 0-15.182-6.797-15.182-15.182v-53.981c0-8.385 6.797-15.182 15.182-15.182z" fill="#62667c"/><path d="m337.12 0c-4.192 0-7.591 3.399-7.591 7.591v16.778c-.129 5.066-4.341 9.067-9.406 8.938-4.884-.125-8.813-4.054-8.938-8.938v-16.778c0-4.192-3.399-7.591-7.591-7.591h-159.457c-4.192 0-7.591 3.399-7.591 7.591v16.778c-.129 5.066-4.341 9.067-9.406 8.938-4.884-.125-8.813-4.054-8.938-8.938v-16.778c0-4.192-3.399-7.591-7.591-7.591s-7.591 3.399-7.591 7.591v16.778c.211 13.451 11.286 24.184 24.736 23.973 13.153-.206 23.767-10.819 23.973-23.973v-9.187h144.25v9.187c.21 13.451 11.285 24.184 24.736 23.973 13.154-.206 23.768-10.819 23.973-23.973v-16.778c-.001-4.183-3.385-7.578-7.568-7.591z" fill="#dbd8dd"/><path d="m320.258 25.541v6.378c-8.996-.003-16.291 7.286-16.294 16.282v.012c0 .556.048 1.064.102 1.62h-6.432c-.048-.556-.048-1.064-.048-1.62-.02-12.502 10.099-22.652 22.6-22.672z" fill="#eeefee"/></g></svg>