<svg id="Capa_1" enable-background="new 0 0 490.067 490.067" height="512" viewBox="0 0 490.067 490.067" width="512" xmlns="http://www.w3.org/2000/svg"><g><path d="m393.545 341.531c0-156.055-148.44-341.531-148.44-341.531s-148.607 174.71-148.607 341.531c0 82.034 66.502 148.536 148.536 148.536s148.536-66.502 148.536-148.536" fill="#ef5261"/><path d="m213.162 404.376c-3.17-.001-6.211-1.261-8.452-3.503l-39.881-39.881c-4.587-4.749-4.455-12.317.293-16.904 4.633-4.475 11.978-4.475 16.61 0l31.429 31.423 95.153-95.177c4.749-4.587 12.317-4.456 16.904.293 4.475 4.633 4.475 11.978 0 16.611l-103.604 103.636c-2.241 2.242-5.281 3.502-8.452 3.502z" fill="#eeefee"/></g></svg>