<svg id="Capa_1" enable-background="new 0 0 490.138 490.138" height="512" viewBox="0 0 490.138 490.138" width="512" xmlns="http://www.w3.org/2000/svg"><g><path d="m5.977 243.882h478.184c3.301 0 5.977 2.676 5.977 5.977v171.435c0 3.301-2.676 5.977-5.977 5.977h-478.184c-3.301 0-5.977-2.676-5.977-5.977v-171.435c0-3.301 2.676-5.977 5.977-5.977z" fill="#eeefee"/><path d="m140.467 335.567c.016 24.346-19.707 44.096-44.053 44.112s-44.096-19.707-44.112-44.053 19.707-44.096 44.053-44.112h.06c24.316.03 44.022 19.736 44.052 44.053z" fill="#ef5261"/><path d="m64.274 338.556c-1.651 0-2.989-1.338-2.989-2.989.04-19.385 15.762-35.08 35.147-35.087 1.651 0 2.989 1.338 2.989 2.989s-1.338 2.989-2.989 2.989c-16.085.003-29.133 13.024-29.169 29.109 0 1.651-1.339 2.989-2.989 2.989z" fill="#eeefee"/><path d="m289.152 335.567c.017 24.346-19.707 44.096-44.053 44.112s-44.096-19.707-44.112-44.053 19.707-44.096 44.053-44.112h.06c24.316.03 44.022 19.736 44.052 44.053z" fill="#ef5261"/><path d="m212.941 338.556c-1.651 0-2.989-1.338-2.989-2.989.039-19.373 15.743-35.064 35.117-35.087 1.651 0 2.989 1.338 2.989 2.989s-1.338 2.989-2.989 2.989c-16.085.003-29.133 13.024-29.169 29.109 0 1.639-1.32 2.973-2.959 2.989z" fill="#eeefee"/><path d="m437.819 335.567c.017 24.346-19.707 44.096-44.053 44.112s-44.096-19.707-44.112-44.053 19.707-44.096 44.053-44.112h.06c24.317.03 44.023 19.736 44.052 44.053z" fill="#ef5261"/><path d="m361.627 338.556c-1.651 0-2.989-1.338-2.989-2.989.04-19.385 15.762-35.08 35.147-35.087 1.651 0 2.989 1.338 2.989 2.989s-1.338 2.989-2.989 2.989c-16.085.003-29.133 13.024-29.169 29.109-.001 1.651-1.339 2.989-2.989 2.989z" fill="#eeefee"/><path d="m306.08 178.484-109.026 108.966c-9.713 9.73-21.564 17.057-34.609 21.399l-27.358 9.145-.06-.06-22.654 22.594c-3.766 3.766-19.127-11.596-15.362-15.362l22.594-22.654-.06-.06 9.145-27.376c4.342-13.045 11.669-24.895 21.399-34.609l108.966-109.026z" fill="#dbd8dd"/><ellipse cx="322.322" cy="114.864" fill="#69b0ee" rx="51.997" ry="51.997" transform="matrix(.707 -.707 .707 .707 13.185 261.559)"/><path d="m298.237 96.774c-3.301-.001-5.977-2.677-5.976-5.979 0-1.585.63-3.104 1.75-4.225 15.627-15.642 40.973-15.661 56.623-.042 2.374 2.293 2.44 6.078.146 8.452-2.293 2.374-6.078 2.44-8.452.146-.05-.048-.098-.097-.146-.146-10.987-10.955-28.775-10.929-39.73.059 0 0-.001.001-.001.001-1.12 1.112-2.635 1.735-4.214 1.734z" fill="#eeefee"/><path d="m246.69 121.229 8.487-8.487c2.344-2.344 6.143-2.344 8.487 0l60.804 60.804c2.344 2.344 2.344 6.143 0 8.487l-8.487 8.487c-2.344 2.344-6.143 2.344-8.487 0l-60.804-60.804c-2.344-2.344-2.344-6.144 0-8.487z" fill="#419be9"/></g></svg>