<svg id="Capa_1" enable-background="new 0 0 490.138 490.138" height="512" viewBox="0 0 490.138 490.138" width="512" xmlns="http://www.w3.org/2000/svg"><g><path d="m80.753 45.726-.119.06v-.06z" fill="#eeefee"/><path d="m296.594 83.383c0 28.484-23.091 51.575-51.575 51.575s-51.575-23.091-51.575-51.575c31.536 19.789 71.613 19.789 103.15 0z" fill="#dbd8dd"/><path d="m490.138 157.281-51.273 82.774-60.574-32.612v236.97h-266.516v-236.923l-60.502 32.564-51.273-82.773 102.038-67.436c6.334-4.186 13.758-6.421 21.351-6.426l63.479-.036c0 32.117 26.036 58.153 58.153 58.153s58.153-26.036 58.153-58.153h63.467c7.598 0 15.029 2.232 21.369 6.42z" fill="#eeefee"/><g fill="#ef5261"><path d="m27.621 139.056 52.851 85.278 16.892-9.091-53.21-87.132z"/><path d="m245.015 148.805c-36.115-.04-65.382-29.307-65.422-65.422h14.537c-.013 28.103 22.758 50.895 50.861 50.909 28.103.013 50.895-22.758 50.909-50.861 0-.016 0-.032 0-.048h14.537c-.04 36.115-29.307 65.382-65.422 65.422z"/><path d="m289.176 328.925c0-46.342-44.106-101.423-44.106-101.423s-44.13 51.883-44.13 101.423c-.008 24.359 19.733 44.113 44.093 44.12 24.359.008 44.113-19.733 44.12-44.093 0-.009 0-.019 0-.028"/></g><path d="m239.134 303.82h11.865v46.246h-11.865z" fill="#eeefee"/><path d="m221.949 321.005h46.246v11.865h-46.246z" fill="#eeefee"/><path d="m462.517 139.056-52.851 85.278-16.892-9.091 53.21-87.132z" fill="#ef5261"/></g></svg>