<svg height="512" viewBox="0 0 128 128" width="512" xmlns="http://www.w3.org/2000/svg"><g id="number"><text fill="#24253a" font-family="MyriadPro-Regular, Myriad Pro" font-size="40" letter-spacing=".002em" transform="translate(55.973 -738.265)">7<tspan x="-10.3" y="228">17</tspan><tspan x="-10.3" y="456">27</tspan><tspan x="-10.3" y="684">37</tspan><tspan x="-10.3" y="912">47</tspan><tspan x="-10.3" y="1140">57</tspan><tspan x="-10.3" y="1368">67</tspan><tspan x="-10.3" y="1596">77</tspan><tspan x="-10.3" y="1824">87</tspan><tspan x="-10.3" y="2052">97</tspan><tspan x="-20.599" y="2280">107</tspan><tspan x="-20.599" y="2508">117</tspan><tspan x="-20.599" y="2736">127</tspan><tspan x="-20.599" y="2964">137</tspan><tspan x="-20.599" y="3192">147</tspan><tspan x="-20.599" y="3420">157</tspan><tspan x="-20.599" y="3648">167</tspan><tspan x="-20.599" y="3876">177</tspan><tspan x="-20.599" y="4104">187</tspan><tspan x="-20.599" y="4332">197</tspan><tspan x="-20.599" y="4560">207</tspan><tspan x="-20.599" y="4788">217</tspan><tspan x="-20.599" y="5016">227</tspan><tspan x="-20.599" y="5244">237</tspan><tspan x="-20.599" y="5472">247</tspan></text></g><g id="icon"><path d="m81.627 36.671a17.627 17.627 0 1 1 -35.254 0c0-9.735 17.627-35.671 17.627-35.671s17.627 25.936 17.627 35.671z" fill="#d7212d"/><path d="m81.626 36.672a17.626 17.626 0 0 1 -34.432 5.313 17.623 17.623 0 0 0 30.067-12.485c0-5.194-5.017-15-9.7-23.015 5.157 8.157 14.065 23.262 14.065 30.187z" fill="#b9182a"/><path d="m64 55.3a18.648 18.648 0 0 1 -18.627-18.629c0-9.929 17.073-35.164 17.8-36.233a1.038 1.038 0 0 1 1.654 0c.727 1.069 17.8 26.3 17.8 36.233a18.648 18.648 0 0 1 -18.627 18.629zm0-52.5c-3.466 5.256-16.627 25.739-16.627 33.871a16.627 16.627 0 0 0 33.254 0c0-8.132-13.161-28.615-16.627-33.871z" fill="#2f3a5a"/><path d="m115.286 24.283a13.676 13.676 0 0 0 -11.512 12.817l-1.269 25.05-14.381 21.677 6.968-22.356a9.406 9.406 0 0 0 -6.872-11.69l-11.779 29.219-4.041 17.6-1.15 27.048 26.64.009-1.65-20.649 16.428-32.765z" fill="#e8c79c"/><path d="m96.244 103.013 1.64 20.644-26.635-.006.006-.1 22.412-.143-1.64-20.644 16.422-32.773 2.527-44.248a13.323 13.323 0 0 1 4.31-1.456l-2.62 45.956z" fill="#d0aa79"/><path d="m97.885 124.658-26.64-.009a1 1 0 0 1 -1-1.042l1.155-27.048a1.035 1.035 0 0 1 .024-.182l4.046-17.6a1.024 1.024 0 0 1 .047-.15l11.775-29.22a1 1 0 0 1 1.16-.6 10.407 10.407 0 0 1 7.6 12.933l-4.892 15.7 10.358-15.614 1.254-24.777a14.747 14.747 0 0 1 12.357-13.749 1 1 0 0 1 1.155 1.045l-2.619 45.955a1 1 0 0 1 -.1.391l-16.3 32.516 1.623 20.371a1 1 0 0 1 -1 1.08zm-25.6-2.008 24.514.008-1.559-19.569a1 1 0 0 1 .1-.528l16.334-32.58 2.533-44.45a12.744 12.744 0 0 0 -9.44 11.619l-1.267 25.05a1 1 0 0 1 -.166.5l-14.377 21.68a1 1 0 0 1 -1.788-.85l6.968-22.356a8.408 8.408 0 0 0 -5.327-10.18l-11.41 28.306-4.009 17.435z" fill="#2f3a5a"/><path d="m12.714 24.283a13.676 13.676 0 0 1 11.512 12.817l1.269 25.05 14.381 21.677-6.968-22.356a9.406 9.406 0 0 1 6.872-11.69l11.779 29.219 4.041 17.6 1.15 27.048-26.64.009 1.645-20.649-16.422-32.765z" fill="#e8c79c"/><path d="m31.756 103.013-1.64 20.644 26.635-.006-.006-.1-22.412-.151 1.64-20.644-16.421-32.769-2.527-44.247a13.323 13.323 0 0 0 -4.31-1.456l2.62 45.956z" fill="#d0aa79"/><path d="m30.115 124.658a1 1 0 0 1 -1-1.08l1.623-20.371-16.3-32.516a1 1 0 0 1 -.1-.391l-2.622-45.96a1 1 0 0 1 1.155-1.04 14.747 14.747 0 0 1 12.354 13.747l1.254 24.777 10.358 15.614-4.884-15.67a10.406 10.406 0 0 1 7.595-12.96 1 1 0 0 1 1.16.6l11.778 29.218a1.024 1.024 0 0 1 .047.15l4.046 17.6a1.035 1.035 0 0 1 .024.182l1.15 27.048a1 1 0 0 1 -1 1.042zm-13.796-54.678 16.334 32.58a1 1 0 0 1 .1.528l-1.553 19.569 24.514-.008-1.1-25.914-4.014-17.435-11.41-28.307a8.408 8.408 0 0 0 -5.319 10.207l6.96 22.329a1 1 0 0 1 -1.788.85l-14.382-21.679a1 1 0 0 1 -.166-.5l-1.269-25.05a12.744 12.744 0 0 0 -9.44-11.619z" fill="#2f3a5a"/><path d="m66.774 110.21h35.929v16.79h-35.929z" fill="#9297ab"/><path d="m23.867 110.21h35.929v16.79h-35.929z" fill="#9297ab"/><path d="m102.707 110.205v3.638h-32.472v13.155h-3.461v-16.793z" fill="#84879c"/><path d="m59.791 110.205v16.793h-3.884v-13.155h-32.038v-3.638z" fill="#84879c"/><g fill="#2f3a5a"><path d="m102.7 128h-35.926a1 1 0 0 1 -1-1v-16.79a1 1 0 0 1 1-1h35.926a1 1 0 0 1 1 1v16.79a1 1 0 0 1 -1 1zm-34.929-2h33.929v-14.79h-33.926z"/><path d="m59.8 128h-35.933a1 1 0 0 1 -1-1v-16.79a1 1 0 0 1 1-1h35.933a1 1 0 0 1 1 1v16.79a1 1 0 0 1 -1 1zm-34.929-2h33.929v-14.79h-33.933z"/></g></g></svg>